<?xml version="1.0" encoding="UTF-8" standalone="no"?>
<svg
   xmlns:dc="http://purl.org/dc/elements/1.1/"
   xmlns:cc="http://creativecommons.org/ns#"
   xmlns:rdf="http://www.w3.org/1999/02/22-rdf-syntax-ns#"
   xmlns:svg="http://www.w3.org/2000/svg"
   xmlns="http://www.w3.org/2000/svg"
   xmlns:sodipodi="http://sodipodi.sourceforge.net/DTD/sodipodi-0.dtd"
   xmlns:inkscape="http://www.inkscape.org/namespaces/inkscape"
   height="200"
   width="200"
   inkscape:version="1.0 (4035a4fb49, 2020-05-01)"
   sodipodi:docname="icon-bootstrap.svg"
   xml:space="preserve"
   viewBox="0 0 200 200"
   y="0px"
   x="0px"
   id="Layer_1"
   version="1.1"><metadata
   id="metadata15"><rdf:RDF><cc:Work
       rdf:about=""><dc:format>image/svg+xml</dc:format><dc:type
         rdf:resource="http://purl.org/dc/dcmitype/StillImage" /></cc:Work></rdf:RDF></metadata><defs
   id="defs13">
	
	

		
	</defs><sodipodi:namedview
   inkscape:snap-center="true"
   inkscape:snap-object-midpoints="true"
   inkscape:current-layer="Layer_1"
   inkscape:window-maximized="1"
   inkscape:window-y="-8"
   inkscape:window-x="-8"
   inkscape:cy="132.76821"
   inkscape:cx="210.60344"
   inkscape:zoom="0.84369231"
   showgrid="false"
   id="namedview11"
   inkscape:window-height="705"
   inkscape:window-width="1366"
   inkscape:pageshadow="2"
   inkscape:pageopacity="0"
   guidetolerance="10"
   gridtolerance="10"
   objecttolerance="10"
   borderopacity="1"
   bordercolor="#666666"
   pagecolor="#ffffff" />
<path
   d="m 169.30294,158.34449 c -2.47989,6.03217 -6.50135,11.39411 -11.59518,15.48258 -5.2949,4.28955 -11.99732,7.77478 -20.24128,10.3217 -8.17694,2.54692 -17.96245,3.82038 -29.28955,3.82038 H 27.34585 V 12.030846 h 85.45575 c 15.8177,0 28.48524,3.552277 37.93566,10.790882 9.58445,7.238607 14.27613,18.163536 14.27613,32.774791 0,8.91421 -2.14476,16.42091 -6.50134,22.721176 -4.35656,6.300269 -10.58982,11.126006 -18.63271,14.544235 v 0.60322 c 10.72386,2.27882 19.03486,7.37265 24.46381,15.28149 5.42896,7.90885 8.311,17.89544 8.311,29.95978 0,6.76944 -1.34049,13.20375 -3.75337,19.1689 z m -34.91958,-43.3646 c -5.09382,-4.69169 -12.39945,-7.03753 -21.7158,-7.03753 H 58.310993 v 54.89275 H 112.8016 c 9.24933,0 16.62199,-2.41287 21.71581,-7.23861 5.16087,-4.89276 7.7748,-11.79624 7.7748,-20.64343 -0.067,-8.71313 -2.61393,-15.41554 -7.7748,-19.97318 z m -7.50669,-35.522785 c 4.95977,-4.222517 7.43968,-10.254689 7.43968,-18.163534 0,-8.847187 -2.2118,-15.147452 -6.70242,-18.699729 -4.42359,-3.552279 -10.79087,-5.428954 -19.16889,-5.428954 H 58.176945 v 48.525463 h 50.268095 c 7.30564,0 13.60589,-2.144774 18.43163,-6.233246 z"
   style="fill:none;fill-opacity:1;stroke:#0a010e;stroke-width:4.6917;stroke-miterlimit:4;stroke-dasharray:none;stroke-opacity:1"
   id="path846" />
<rect
   y="0"
   x="0"
   height="200"
   width="200"
   id="rect854"
   style="opacity:0.997;fill:none;fill-opacity:1;fill-rule:evenodd;stroke:none;stroke-width:6.40315;stroke-linecap:round;stroke-miterlimit:4;stroke-dasharray:none;stroke-opacity:1;paint-order:stroke markers fill" /></svg>
