<?xml version="1.0" encoding="UTF-8" standalone="no"?>
<svg
   xmlns:dc="http://purl.org/dc/elements/1.1/"
   xmlns:cc="http://creativecommons.org/ns#"
   xmlns:rdf="http://www.w3.org/1999/02/22-rdf-syntax-ns#"
   xmlns:svg="http://www.w3.org/2000/svg"
   xmlns="http://www.w3.org/2000/svg"
   xmlns:sodipodi="http://sodipodi.sourceforge.net/DTD/sodipodi-0.dtd"
   xmlns:inkscape="http://www.inkscape.org/namespaces/inkscape"
   inkscape:version="1.0 (4035a4fb49, 2020-05-01)"
   sodipodi:docname="icon-github.svg"
   id="svg4"
   version="1.1"
   viewBox="0 0 40 40"
   height="50"
   width="50">
  <metadata
     id="metadata10">
    <rdf:RDF>
      <cc:Work
         rdf:about="">
        <dc:format>image/svg+xml</dc:format>
        <dc:type
           rdf:resource="http://purl.org/dc/dcmitype/StillImage" />
        <dc:title></dc:title>
      </cc:Work>
    </rdf:RDF>
  </metadata>
  <defs
     id="defs8" />
  <sodipodi:namedview
     inkscape:current-layer="svg4"
     inkscape:window-maximized="1"
     inkscape:window-y="-8"
     inkscape:window-x="-8"
     inkscape:cy="16.732865"
     inkscape:cx="-6.8223504"
     inkscape:zoom="5.0908207"
     inkscape:snap-center="true"
     inkscape:snap-object-midpoints="false"
     showgrid="false"
     id="namedview6"
     inkscape:window-height="705"
     inkscape:window-width="1366"
     inkscape:pageshadow="2"
     inkscape:pageopacity="0"
     guidetolerance="10"
     gridtolerance="10"
     objecttolerance="10"
     borderopacity="1"
     bordercolor="#666666"
     pagecolor="#ffffff">
    <sodipodi:guide
       id="guide835"
       orientation="0,50"
       position="0,40" />
    <sodipodi:guide
       id="guide837"
       orientation="50,0"
       position="40,40" />
    <sodipodi:guide
       id="guide839"
       orientation="0,-50"
       position="40,0" />
    <sodipodi:guide
       id="guide841"
       orientation="-50,0"
       position="0,0" />
  </sodipodi:namedview>
  <path
     style="stroke-width:0.9896;stroke:#2b2b2b;stroke-opacity:1;stroke-miterlimit:4;stroke-dasharray:none;fill:none"
     id="path2"
     d="m 17.701218,28.924108 a 0.49062766,0.501 0 0 0 -0.577785,-0.492 c -1.557082,0.295 -3.533302,0.299 -4.10717,-1.347 a 5.5056062,5.622 0 0 0 -1.644239,-2.249 1.4297732,1.46 0 0 1 -0.399555,-0.31 0.48964836,0.5 0 0 0 -0.480834,-0.42 h -0.002 a 0.48964836,0.5 0 0 0 -0.4896477,0.499 c -0.0029,0.57 0.6952997,0.997 0.9029107,1.11 0.519029,0.475 0.927395,1.064 1.196702,1.721 0.340795,0.98 1.380808,2.495 4.624239,2.072 0.0029,0.365 0.0078,0.553 0.01175,0.697 l 0.0049,0.294 a 0.4896485,0.50000014 0 0 0 0.979297,0 l -0.0049,-0.322 a 37.980065,38.783 0 0 1 -0.01371,-1.253 z m 11.034716,-15.641 a 7.204686,7.357 0 0 0 -0.09401,-0.119 c 0.06561,-0.21 0.117516,-0.427 0.154729,-0.645 a 5.9080971,6.033 0 0 0 -0.388781,-3.1700002 0.48964836,0.5 0 0 0 -0.302602,-0.29 c -0.138081,-0.047 -1.403333,-0.395 -4.044496,1.3820002 a 13.683713,13.973 0 0 0 -6.741478,0 C 14.679112,8.6851078 13.421695,9.0141078 13.281655,9.0561078 a 0.49258625,0.503 0 0 0 -0.309458,0.292 5.9129936,6.038 0 0 0 -0.385843,3.2190002 c 0.03721,0.2 0.0852,0.397 0.141998,0.592 a 3.5097995,3.584 0 0 0 -0.09793,0.128 5.8228983,5.946 0 0 0 -1.248604,3.774 c -0.002,0.31 0.01175,0.62 0.04211,0.929 0.332961,4.664 3.279665,5.962 5.823878,6.405 a 3.7281826,3.807 0 0 0 -0.368216,0.967 0.48964836,0.5 0 0 0 0.950897,0.238 c 0.09108,-0.46 0.318272,-0.88 0.651233,-1.202 a 0.48964836,0.5 0 0 0 -0.266369,-0.874 c -2.698942,-0.313 -5.501689,-1.225 -5.815064,-5.625 a 7.5239367,7.683 0 0 1 -0.03819,-0.838 4.8788563,4.982 0 0 1 1.047847,-3.168 c 0.07443,-0.102 0.156687,-0.194 0.237969,-0.286 a 0.49062766,0.501 0 0 0 0.09401,-0.516 3.9661517,4.05 0 0 1 -0.189984,-0.695 4.8524153,4.955 0 0 1 0.227197,-2.39 6.571081,6.71 0 0 1 3.180756,1.389999 0.48671047,0.497 0 0 0 0.405428,0.067 12.704416,12.973 0 0 1 6.652363,0 0.48964836,0.5 0 0 0 0.406408,-0.067 6.41929,6.555 0 0 1 3.17488,-1.3979992 4.8377258,4.94 0 0 1 0.232094,2.3560002 3.7967334,3.877 0 0 1 -0.201736,0.737 0.49062766,0.501 0 0 0 0.09499,0.516 c 0.08618,0.097 0.171377,0.205 0.247762,0.302 a 4.8112848,4.913 0 0 1 1.047848,3.152 c 0.002,0.286 -0.01175,0.572 -0.04113,0.856 -0.310437,4.381 -3.123956,5.292 -5.83367,5.607 a 0.48964836,0.5 0 0 0 -0.267348,0.874 c 0.337857,0.325 0.564075,0.752 0.645356,1.219 0.08324,0.329 0.122412,0.668 0.115557,1.008 v 2.46 c -0.0098,0.675 -0.0098,1.182 -0.0098,1.414 a 0.4896485,0.50000014 0 0 0 0.979297,0 c 0,-0.23 0,-0.731 0.0098,-1.407 v -2.467 a 4.5370817,4.633 0 0 0 -0.146895,-1.255 3.5773709,3.653 0 0 0 -0.359401,-0.975 c 2.554985,-0.442 5.51344,-1.74 5.842484,-6.385 0.03232,-0.315 0.04799,-0.632 0.04505,-0.949 a 5.7700163,5.892 0 0 0 -1.263292,-3.778 z"
     fill="#2b2b2b" />
</svg>
