<?xml version="1.0" encoding="UTF-8" standalone="no"?>
<svg
   xmlns:dc="http://purl.org/dc/elements/1.1/"
   xmlns:cc="http://creativecommons.org/ns#"
   xmlns:rdf="http://www.w3.org/1999/02/22-rdf-syntax-ns#"
   xmlns:svg="http://www.w3.org/2000/svg"
   xmlns="http://www.w3.org/2000/svg"
   xmlns:sodipodi="http://sodipodi.sourceforge.net/DTD/sodipodi-0.dtd"
   xmlns:inkscape="http://www.inkscape.org/namespaces/inkscape"
   width="200"
   height="200"
   viewBox="0 0 200 200"
   version="1.1"
   id="svg4"
   sodipodi:docname="icon-html.svg"
   inkscape:version="1.0 (4035a4fb49, 2020-05-01)">
  <metadata
     id="metadata10">
    <rdf:RDF>
      <cc:Work
         rdf:about="">
        <dc:format>image/svg+xml</dc:format>
        <dc:type
           rdf:resource="http://purl.org/dc/dcmitype/StillImage" />
        <dc:title />
      </cc:Work>
    </rdf:RDF>
  </metadata>
  <defs
     id="defs8" />
  <sodipodi:namedview
     inkscape:document-rotation="0"
     pagecolor="#ffffff"
     bordercolor="#666666"
     borderopacity="1"
     objecttolerance="10"
     gridtolerance="10"
     guidetolerance="10"
     inkscape:pageopacity="0"
     inkscape:pageshadow="2"
     inkscape:window-width="1366"
     inkscape:window-height="705"
     id="namedview6"
     showgrid="false"
     inkscape:zoom="1.6055073"
     inkscape:cx="128"
     inkscape:cy="128"
     inkscape:window-x="-8"
     inkscape:window-y="-8"
     inkscape:window-maximized="1"
     inkscape:current-layer="svg4" />
  <path
     fill="#0a010e"
     d="M 56.634358,71.762889 26.442293,96.922935 56.634358,122.08301 a 5.9462463,5.9462463 0 1 1 -7.611195,9.13492 L 13.345685,101.48669 a 5.9462463,5.9462463 0 0 1 0,-9.134925 l 35.677478,-29.73123 a 5.9479603,5.9479603 0 0 1 7.611195,9.142354 z M 187.45178,92.351765 151.7743,62.620535 a 5.9479602,5.9479602 0 1 0 -7.61119,9.142354 l 30.19206,25.160046 -30.19206,25.160075 a 5.9462463,5.9462463 0 1 0 7.61119,9.13492 l 35.67748,-29.73124 a 5.9462463,5.9462463 0 0 0 0,-9.134925 z M 126.21287,25.924762 a 5.9462463,5.9462463 0 0 0 -7.61862,3.560315 L 71.024274,160.30251 a 5.9462463,5.9462463 0 0 0 3.560315,7.62606 6.0503056,6.0503056 0 0 0 2.029156,0.34934 5.9462463,5.9462463 0 0 0 5.589472,-3.91709 L 129.77319,33.543391 a 5.9462463,5.9462463 0 0 0 -3.56032,-7.618629 z"
     id="path2"
     style="fill:none;stroke:#0a010e;stroke-width:1.63522;stroke-miterlimit:4;stroke-dasharray:none;stroke-opacity:1" />
</svg>
