<?xml version="1.0" encoding="UTF-8" standalone="no"?>
<svg
   xmlns:dc="http://purl.org/dc/elements/1.1/"
   xmlns:cc="http://creativecommons.org/ns#"
   xmlns:rdf="http://www.w3.org/1999/02/22-rdf-syntax-ns#"
   xmlns:svg="http://www.w3.org/2000/svg"
   xmlns="http://www.w3.org/2000/svg"
   xmlns:sodipodi="http://sodipodi.sourceforge.net/DTD/sodipodi-0.dtd"
   xmlns:inkscape="http://www.inkscape.org/namespaces/inkscape"
   inkscape:version="1.0 (4035a4fb49, 2020-05-01)"
   sodipodi:docname="icon-gsap.svg"
   id="svg4"
   version="1.1"
   viewBox="0 0 24 24"
   height="30"
   width="30">
  <metadata
     id="metadata10">
    <rdf:RDF>
      <cc:Work
         rdf:about="">
        <dc:format>image/svg+xml</dc:format>
        <dc:type
           rdf:resource="http://purl.org/dc/dcmitype/StillImage" />
      </cc:Work>
    </rdf:RDF>
  </metadata>
  <defs
     id="defs8" />
  <sodipodi:namedview
     inkscape:current-layer="svg4"
     inkscape:window-maximized="1"
     inkscape:window-y="-8"
     inkscape:window-x="-8"
     inkscape:cy="15"
     inkscape:cx="15"
     inkscape:zoom="14.399015"
     showgrid="false"
     id="namedview6"
     inkscape:window-height="705"
     inkscape:window-width="1366"
     inkscape:pageshadow="2"
     inkscape:pageopacity="0"
     guidetolerance="10"
     gridtolerance="10"
     objecttolerance="10"
     borderopacity="1"
     bordercolor="#666666"
     pagecolor="#ffffff" />
  <path
     style="stroke:#000000;stroke-width:0.211314;stroke-miterlimit:4;stroke-dasharray:none;stroke-opacity:1"
     id="path2"
     d="m 16.378214,0.93016044 c -0.458005,0.002768 -0.910968,0.12361346 -1.055513,0.33855316 -0.09244,0.1522106 -0.161352,1.1032958 -0.09244,1.5848346 0,0 0.02689,0.3182584 0.07563,0.5664077 a 12.269496,13.468326 0 0 1 -0.01681,0.1678929 5.9028041,6.4795567 0 0 1 -0.08152,0.5581053 c -0.0084,0.051659 -0.173958,0.087636 -0.35716,0.1402182 A 2.0967392,2.301608 0 0 0 14.734432,4.2474274 C 14.537784,4.1837758 14.410887,4.3608934 14.215079,4.4872743 14.157095,4.4503749 13.9033,4.3230715 13.764638,4.41163 c -0.138663,0.088559 -0.231104,0.1780402 -0.369766,0.2407694 -0.06891,-0.037822 -0.253794,-0.037822 -0.403381,0.02583 A 1.0672781,1.1715599 0 0 0 12.585595,4.9346815 C 10.640964,5.4697246 8.5408631,6.4429495 8.3736282,6.5407333 7.5189653,7.0222721 6.1222597,7.846054 5.4877755,8.4161517 4.4028495,9.4041365 3.7566001,10.55817 3.501966,11.406858 3.1784211,12.458495 3.2708625,13.092244 3.5826422,12.68635 3.8330743,12.348718 4.9541365,11.345051 5.6625739,10.842296 l -0.00168,0.0065 a 2.7051717,2.9694894 0 0 1 0.369764,-0.239867 L 6.2264656,10.49454 6.6508557,10.196577 c 0.5059066,0.509213 0.6748223,1.321925 0.7874328,2.426143 0.1848827,1.698302 1.4320014,2.484261 2.8858525,2.509169 1.512677,0.02583 2.055561,0.368072 2.621134,1.203847 0.128578,0.185419 0.26724,0.283203 0.394977,0.339475 a 1.6420956,1.8025419 0 0 0 -0.134461,0.373607 c -0.06303,0.156823 -0.105047,0.350546 -0.131938,0.560873 a 0.1319391,0.14483064 0 0 0 -0.02521,0.06919 c -0.05715,0.494453 -0.04622,1.660479 -0.05715,2.281313 -0.01176,0.620835 -0.02354,0.710316 -0.06975,0.798875 -0.04622,0.101474 -0.09244,0.164203 -0.149588,0.430802 -0.05798,0.278591 -0.162193,0.354236 -0.265559,0.58209 -0.173117,0.355158 -0.138662,0.747215 0.03446,0.925255 0.173117,0.177119 0.64709,0.443718 1.292499,0.355159 0.647089,-0.08856 0.739531,-0.139296 0.635324,-0.823782 -0.01176,-0.101474 -0.161352,-0.558105 -0.115132,-0.735223 0.06891,-0.190033 -0.08068,-0.519361 -0.04622,-0.532276 0.03446,-0.01291 0.08068,-0.265677 0.08068,-0.39298 0,-0.126381 -0.01176,-0.734301 0.115131,-1.051636 0.05211,-0.129149 0.162192,-0.424345 0.273962,-0.724154 0.371447,-0.666959 0.385734,-1.071008 0.403381,-1.300708 0.02521,-0.186343 0.03866,-0.424344 0.01513,-0.686331 0.04622,-0.07656 0.242868,-0.253685 0.265559,-0.595927 0,0 0.541202,-0.310879 0.926095,-1.059017 0.13446,0.513826 0.260516,0.839465 0.240348,1.173405 -0.419348,0.359771 -0.574818,0.625447 -0.638687,0.884666 -0.04034,-0.01845 -0.06387,-0.03413 -0.09244,-0.0369 h -0.02269 a 0.3672445,0.40312732 0 0 0 -0.08909,0.02675 c -0.161352,0.06273 -0.03446,1.21584 0.138663,1.685385 0.173118,0.468625 0.265559,0.747216 0.33447,1.254584 0.06975,0.506446 -0.161352,1.127281 -0.253794,1.405873 0,0 -0.150427,0.494453 0.195808,0.76013 0.300855,0.228777 1.432001,0.166047 1.939588,0.166047 0.508428,0 1.26981,0.202026 1.754707,0.100552 0.600869,-0.114389 0.69247,-0.507368 0.33531,-0.710316 -0.358001,-0.202947 -0.900883,-0.303498 -1.605119,-0.860681 -0.184883,-0.140218 -0.438676,-0.266599 -0.473132,-0.380065 -0.03446,-0.11439 -0.03446,-0.773046 -0.02269,-1.344066 0.01092,-0.570097 0.184882,-1.304398 0.242028,-1.697378 0.05379,-0.36715 -0.06387,-0.357925 -0.220179,-0.323793 0.02689,-0.135606 0.05547,-0.269367 0.08152,-0.41143 0.289089,-0.583012 0.162192,-1.128203 0.162192,-1.128203 0.689109,-0.963077 0.336151,-3.016536 0.184883,-3.734232 0.537841,0.279514 0.806762,0.173428 0.806762,0.173428 0.08572,-0.05074 0.161352,-0.123614 0.230262,-0.206638 0.283191,-0.333936 0.428576,-0.844995 0.428576,-0.844995 v -0.02491 C 20.70195,10.355218 21.012049,9.2915891 20.263274,8.594188 A 1.118541,1.2278317 0 0 0 20.079232,7.4290894 1.3109873,1.4390815 0 0 0 19.768292,5.8322624 1.1429119,1.2545839 0 0 0 19.359029,5.5582834 C 19.190954,5.2861495 19.153137,5.1736059 18.878334,5.2363351 18.752277,5.0841245 18.728746,4.9706585 18.463188,5.0721322 c 0,0 -0.08068,-0.2158622 -0.231104,-0.2665991 a 0.2100941,0.23062203 0 0 0 -0.04202,-0.013837 C 17.936271,4.5979736 17.706007,4.5933612 17.541294,4.644098 17.487504,4.599819 17.490024,4.5297095 17.482474,4.2861726 17.475774,4.101675 17.466504,3.8378433 17.456424,3.5998415 17.479114,3.2972653 17.542144,2.701338 17.562312,2.3978393 17.585842,2.0565187 17.597612,1.5233206 17.458945,1.295466 17.296745,1.040859 16.835378,0.92739297 16.378214,0.93016044 Z m -0.0042,0.31364596 c 0.588263,0 0.842058,0.2029474 0.877353,0.3164134 0.01092,0.02583 0.06891,0.4566316 0.03362,0.7352231 -0.01092,0.1014737 -0.02269,0.4695465 -0.04538,0.6337493 -0.01176,0.1651254 -0.05798,0.355158 -0.104207,0.6208345 -0.03446,0.2158623 -0.195808,0.4566317 -0.322704,0.4944537 -0.219339,0.063652 -0.62356,0.050737 -0.854663,0 -0.05798,-0.012915 -0.104207,-0.050737 -0.161353,-0.088559 -0.126857,-0.2287766 -0.196609,-0.4058944 -0.219299,-0.6844858 -0.02353,-0.266599 -0.06975,-0.3800651 -0.08068,-0.5830125 -0.01176,-0.304421 -0.01176,-0.5073685 -0.01176,-0.5073685 0.01176,-0.1642029 0.05798,-0.5700977 0.05798,-0.6079196 0.01092,-0.1134661 0.195808,-0.3293283 0.831133,-0.3293283 z m -0.952106,2.492563 c 0.122695,0.1374507 0.252954,0.2822813 0.363043,0.383755 0.104207,0.1014737 0.358,0.088559 0.588263,0.088559 0.208414,0 0.393297,0.02583 0.473973,-0.024908 0.129418,-0.071031 0.298334,-0.2167847 0.439517,-0.3634604 0.0092,0.1402183 0.01849,0.2804365 0.02185,0.4012824 0.0084,0.272134 -0.03614,0.4317245 0.02017,0.5258183 -0.06891,0.044279 -0.146226,0.096861 -0.226061,0.1439081 -0.126897,0.073799 -0.257155,0.1254584 -0.338672,0.1060861 h -0.0017 C 16.586588,4.9651232 15.979836,4.7990756 15.643686,4.6219579 15.503343,4.3830334 15.36216,4.2548076 15.369723,4.2086832 c 0.02269,-0.1263809 0.03362,-0.2278545 0.04538,-0.3920575 0.0033,-0.027674 0.0042,-0.053504 0.0067,-0.081179 z m -0.716841,0.6365168 0.02941,9.225e-4 c 0.35632,0.03321 0.546244,0.1402182 0.679024,0.2619866 l 0.06387,0.027674 0.0067,-0.024908 c 0.0395,0.027674 0.08572,0.05535 0.136141,0.081179 0.394977,0.1466755 0.927776,0.2841263 1.100052,0.3256383 0.207574,0.050737 0.542043,-0.1771177 0.704236,-0.2915063 0.288249,-0.2029473 0.658014,-0.036899 0.831132,0.1780403 0.115132,0.1383732 0.161353,0.2278545 0.161353,0.2656765 0.265559,-0.1014737 0.300014,0.037822 0.426911,0.1900326 0.323545,-0.1651254 0.346235,0.037822 0.369765,0.1263809 -0.102525,0 -0.250432,0.012915 -0.452122,0.036899 l -0.01008,-0.011069 C 18.630422,5.398693 18.413605,5.2732346 18.248051,5.1855982 18.174939,5.1570011 18.096784,5.1403963 18.036276,5.0961169 17.943835,5.04538 17.851394,4.969736 17.712731,4.9826509 17.135393,5.0582949 17.020261,5.2732346 16.523599,5.1468537 16.038702,5.0232403 15.904242,4.9125418 15.403377,4.9429839 l 8.41e-4,0.023985 c -0.08824,0.014759 -0.168075,0.027674 -0.184883,0.027674 -0.173118,0.01107 -0.606752,0.061806 -0.968954,-0.092249 A 1.0555128,1.1586451 0 0 0 14.11508,4.8322853 l -0.0042,-0.00185 h -8.4e-4 C 13.95877,4.7658661 13.782291,4.7289666 13.580601,4.7271216 h -0.02185 c 0.183202,-0.1014736 0.299174,-0.2389244 0.47061,-0.2011024 0.184883,0.037822 0.369766,0.2029474 0.473972,0.3293283 A 0.72104297,0.79149483 0 0 0 14.353747,4.5896709 c 0.107568,-0.083024 0.205892,-0.2112498 0.351277,-0.2158622 z m -0.924414,0.502756 c 0.126056,0.00185 0.235306,0.023985 0.350437,0.067342 0.01513,0.0083 0.02857,0.016605 0.04958,0.026752 0.242029,0.1263809 0.680705,0.1512881 1.050471,0.1263809 a 1.8992508,2.0848232 0 0 0 0.473132,-0.087636 c 0.270601,0.02214 0.431954,0.1014737 0.821048,0.1992575 0.260516,0.064574 0.421869,0.041511 0.584061,-0.00646 0.162193,-0.048892 0.324386,-0.1199234 0.607593,-0.156823 a 0.45548403,0.49998857 0 0 1 0.15799,0.011993 c 0.03193,0.01845 0.06303,0.036899 0.09244,0.056272 0.0521,0.045202 0.17984,0.1245358 0.288249,0.1743502 0.137822,0.062729 0.495822,0.3293283 0.542043,0.3920575 a 0.08403764,0.09224881 0 0 0 0.03193,0.027674 c 0.20337,0.2896612 0.342032,0.6964784 0.332788,1.1162106 -0.05042,0.4243445 -0.358,0.1974124 -0.526075,0.1106986 -0.34623,-0.1642033 -0.692465,-0.2785918 -1.096686,-0.2785918 -0.403381,0 -0.923574,0.037822 -1.374016,0.1651254 -0.622719,0.1900326 -0.807602,0.1771177 -1.084085,0.024907 C 14.804189,6.6809515 14.319291,6.2750567 14.319291,6.2750567 v 0.00922 c -0.0059,-0.00646 -0.01008,-0.01107 -0.01176,-0.00922 -0.0353,0.063652 -0.115972,0.2278546 -0.162193,0.3044211 -0.02269,0.4815388 -0.288248,1.2416691 -0.784911,1.4317016 A 0.45968591,0.50460101 0 0 1 12.967968,7.9733577 2.1034622,2.3089878 0 0 0 12.505761,7.7196735 c 0.404221,0.3542354 0.612634,0.6208345 0.797517,1.0894584 0.146226,0.39667 0.348756,0.9381705 0.842057,1.5184151 0.305057,-0.0037 0.609273,0.08949 0.808443,0.319181 0.115131,0.126381 0.300014,0.266599 0.277324,0.39298 0,0.03783 -0.06975,0.139296 -0.126897,0.215863 a 2.7152562,2.9805592 0 0 1 -0.173958,0.202946 c -0.04538,0.0369 -0.207573,0.177119 -0.242029,0.202948 -0.03446,0.02491 -0.08067,0.08764 -0.115131,0.100551 -0.115972,0.06366 -0.242869,0.01292 -0.358001,-0.05074 -0.115131,-0.06365 0.02269,-0.07564 -0.104206,-0.177117 C 13.825151,11.312767 13.656235,11.155021 13.729347,10.766653 12.946117,10.034198 11.577143,9.6043184 11.283011,8.8220485 11.098129,8.31468 11.074598,8.0619183 11.247711,7.846056 c 0.508428,-0.6337493 0.311781,-1.241669 0.693311,-1.5073456 0.35716,-0.2536843 0.658015,0.0369 0.831132,0.304421 -0.104206,-0.4695464 -0.462206,-0.5839349 -0.462206,-0.6217569 0,-0.5830125 0.508427,-0.9879848 1.016855,-1.0894585 0.183202,-0.037822 0.326906,-0.057194 0.453803,-0.05535 z m -1.552175,0.4926087 c -0.117653,0.1808077 -0.194127,0.4012824 -0.206733,0.665114 -0.173117,0.02583 -0.565573,0.050737 -0.762221,0.8366967 A 2.8488761,3.1272348 0 0 1 11.07964,7.4420042 C 10.99308,7.4835152 8.6038913,8.6172541 6.685312,9.7869691 l -0.0084,-0.00646 C 6.4079878,9.9465595 6.1499922,10.115375 5.9046022,10.28419 l -0.105047,0.07103 -8.404e-4,0.0028 C 4.8440472,11.024948 4.0843469,11.695597 3.5826422,12.306285 3.9288773,9.8349385 5.7071138,8.5425325 6.549171,7.9724349 8.582882,6.5988501 10.439274,5.9198987 12.228435,5.3682509 Z m 6.754106,0.2979637 c 0.218498,-0.00369 0.450441,0.05535 0.635324,0.2536841 0.495822,0.5322757 0.35716,1.1152883 0.207573,1.5202606 0.126057,0.1651253 0.426911,0.6337493 0.242028,1.1909322 -0.03362,0.1273033 -0.288249,0.1273033 -0.473132,0.4566316 0.462207,-0.2915063 0.750457,-0.2149398 0.854663,0.1522105 0.161353,0.5700977 -0.196648,1.2545834 -0.508427,1.6346484 0,-0.01291 -0.01176,-0.02583 -0.01176,-0.03783 -0.04622,0.190032 -0.103367,0.557182 -0.449602,0.963078 -0.173117,0.202947 -0.311779,0.177117 -0.508427,0.126381 -0.180681,-0.04981 -0.270601,-0.130994 -0.456324,-0.254608 -0.03025,-0.190955 -0.08572,-0.444639 -0.08572,-0.544268 0,-0.04059 -0.0033,-0.130071 -0.0084,-0.224164 0.02689,-0.03321 0.05546,-0.06827 0.08908,-0.105164 0,0 0.149588,-0.227854 0.369767,-0.21494 0.218497,0.01291 0.449601,-0.03783 0.507587,-0.101473 0,-0.442794 -0.462207,-0.455709 -0.300015,-1.216762 0.01092,-0.0369 0.06891,-0.1014738 0.253794,-0.1263809 -0.277341,-0.063647 -0.403398,-0.076562 -0.600046,-0.2785866 l -0.01092,-0.011993 c 0.09244,-0.2333895 0.188244,-0.4215771 0.252953,-0.5581053 0.162193,-0.355158 0.06891,-0.7859599 0.06891,-0.7859599 0.173959,-0.063652 0.323545,-0.1651254 0.347076,-0.2278547 0.170596,-0.6208345 -0.137822,-1.2195292 -0.508428,-1.6051293 0.03025,-0.00276 0.06135,-0.00461 0.09244,-0.00554 z m -4.588456,0.8533015 c 0.0084,0.014759 0.01681,0.030442 0.02857,0.046125 0.150428,0.2029474 0.484898,0.4566316 0.935339,0.6208345 0.218498,0.076566 0.392457,0.02583 0.588264,-0.024907 0.943743,-0.2564517 1.936227,-0.3191809 2.798454,0.1429856 a 1.5294851,1.6789284 0 0 1 -0.131939,0.9852174 c -0.194967,0.4289569 -0.447921,0.9852173 -0.403381,2.0433114 -0.206733,0.04059 -1.192494,0.132838 -1.67403,0.03413 -0.437836,-0.08949 -1.189973,-0.4843065 -1.36141,-0.636517 A 5.6330432,6.183438 0 0 1 15.068907,8.9484273 1.1513157,1.2638088 0 0 0 15.450438,8.632014 C 15.104203,8.694743 14.965541,8.668913 14.757128,8.542533 14.559639,8.4226091 14.217606,8.0508464 14.026,7.7860923 c 0.192446,-0.2675215 0.330268,-0.6365168 0.281526,-1.1309705 0.03109,-0.046125 0.05882,-0.091326 0.08572,-0.1356057 z m -3.680848,1.474136 c -0.07563,0.2333896 0.07815,0.6033072 0.188243,0.8791312 0.426911,1.0876136 1.739579,1.1900097 2.627857,2.0110237 a 0.60759216,0.66695893 0 0 0 0.05042,0.357925 c 0.06975,0.152211 0.311779,0.380989 0.311779,0.380989 -0.04622,0.04981 -0.02269,0.151287 -0.02269,0.151287 0.171437,0.20018 0.42355,0.224165 0.459685,0.226933 -0.365564,1.151265 -0.685747,2.422453 -0.379009,3.777588 -0.150427,0.225088 -0.309258,0.410508 -0.44624,0.616222 A 0.71516034,0.78503741 0 0 1 13.130159,16.10878 C 12.633496,15.322821 11.905731,14.802537 10.589701,14.841282 8.6156566,14.892019 7.8307451,14.004585 7.681158,12.306285 7.6021626,11.40778 7.3811436,10.533262 6.9349037,10.019436 8.2089144,9.2454686 9.9829491,8.2519488 10.544321,8.0609938 a 2.353054,2.5829668 0 0 0 0.168075,-0.067342 z M 13.651192,8.1597 c 0.320183,0.4077398 0.668099,0.6706489 1.002569,0.9031159 0.06891,0.3164134 0.09244,0.5322757 0.161353,0.9501631 h -0.03446 l -0.02269,0.284126 A 2.3833075,2.6161764 0 0 0 14.23693,10.192864 l 8.41e-4,-0.0028 C 13.487318,9.2150264 13.649511,8.8340388 13.348657,8.3275928 13.430176,8.2962286 13.537741,8.2408789 13.651192,8.1597 Z m 4.967465,1.0018221 c 0.06387,0.061807 0.149587,0.1106986 0.271442,0.1420632 -0.274803,0.6272919 0.277324,0.8413097 0.31094,1.0793107 -0.120174,0.07656 -0.308419,0.03413 -0.506748,0.02307 -0.09664,-0.0055 -0.192446,0.05996 -0.269761,0.135606 l 0.02689,-0.338554 c 0.0051,-0.3966698 0.07563,-0.7462928 0.168075,-1.0424115 z M 15.184879,10.10615 c 0.02017,0.03229 0.149587,0.120846 0.842057,0.324715 0.862226,0.253685 1.952195,0.1107 2.142961,0.08303 a 0.31766229,0.34870052 0 0 1 -0.01849,0.0821 c 0,0.316414 0.04622,0.544268 0.08068,0.747216 0.04454,0.284126 0.109248,0.491685 0.136981,0.682641 l 0.0067,-0.0065 c 0.196648,1.261042 0.471451,2.890155 -0.224381,3.734232 0.03446,0.177118 0.05799,0.430802 0.01176,0.722309 a 2.692566,2.955652 0 0 1 -0.126896,0.49353 1.924462,2.1124979 0 0 0 -0.09076,0.324716 c -0.924414,0.130993 -1.474861,0.05074 -1.731175,-0.01383 0.103366,-0.345011 0.342033,-0.695557 0.73617,-0.67803 -0.01849,-0.840386 -0.22186,-1.128202 -0.429433,-1.744425 0.331949,-0.814557 0.251273,-1.535942 0.521874,-2.627245 -0.207573,0.240769 -0.369766,1.115287 -0.507588,1.647564 -0.173117,0.773045 -0.473131,1.52026 -1.281574,2.116187 0,0.202948 -0.05798,0.354235 -0.126896,0.45571 -0.150428,0.240769 -0.346236,0.317335 -0.415146,0.710315 0.09244,-0.127303 0.218497,-0.240769 0.218497,-0.202947 a 7.1516034,7.8503741 0 0 1 -0.02101,0.454786 l 0.01008,9.22e-4 c -0.138663,0.963078 -0.438677,1.406795 -0.62356,1.951063 -0.126897,0.39298 -0.08068,1.254584 -0.126897,1.267499 -0.323545,0.07657 -0.819366,-0.06273 -0.958029,-0.138373 0.136141,-1.051636 0.01597,-2.101428 0.366404,-3.320958 l -0.0126,-0.0055 c 0.134459,-0.511059 0.401699,-0.809945 0.789113,-1.350523 -0.135301,-0.479694 -0.447081,-1.512881 0.22354,-3.857846 0.02773,-0.01291 0.05631,-0.02768 0.08824,-0.0452 l 0.173118,-0.126381 c 0.03362,-0.02583 0.08068,-0.06365 0.115131,-0.08856 0.05799,-0.03875 0.31178,-0.342243 0.346236,-0.380065 0.08068,-0.08948 0.138661,-0.114389 0.161352,-0.215862 0.04622,-0.190033 -0.207574,-0.380065 -0.31094,-0.507368 -0.01513,-0.01753 -0.02521,-0.03137 -0.03614,-0.04612 0.01092,-0.03598 0.02269,-0.07103 0.0353,-0.105164 0.0084,-0.115311 0.02353,-0.239847 0.0353,-0.338553 z m 0.742053,7.3264 c 0.04202,0.0018 0.146225,0.112544 0.631123,0.145754 0.554648,0.0369 1.293339,-0.07656 1.489147,-0.127303 0.196647,-0.05074 0.08152,0.101473 0.05798,0.253684 l -0.02185,0.155901 c -0.33531,0.123613 -0.847099,0.173427 -1.189973,0.186341 -0.330268,0.012 -0.710958,-0.01107 -0.975677,-0.101473 -0.04033,-0.239847 -0.05295,-0.433569 -0.0059,-0.507368 a 0.02016904,0.02213972 0 0 1 0.01513,-0.0055 z m 2.105983,0.780426 c -0.01681,0.124536 -0.02941,0.205715 -0.04874,0.343165 -0.326066,0.110699 -0.746255,0.112544 -1.067278,0.124536 a 3.7085812,4.0709402 0 0 1 -0.850461,-0.06457 1.7353773,1.904938 0 0 1 -0.02773,-0.100551 9.5323895,10.463783 0 0 1 -0.05463,-0.232467 c 0.150427,0.03137 0.445399,0.07288 0.966433,0.08025 a 3.4808391,3.8209459 0 0 0 1.082405,-0.150365 z m -0.08908,0.631904 c -0.05798,0.405895 -0.04622,1.647564 -0.01176,1.989807 0.01176,0.101474 0.796677,0.481539 1.073161,0.710316 0.08992,0.07841 0.217657,0.144831 0.354639,0.204792 0.0353,0.03875 0.09748,0.09686 0.165553,0.187266 0.136141,0.19649 0.0437,0.402204 -0.113451,0.485228 -0.221859,-0.0065 -0.477333,-0.04797 -0.902564,-0.118078 -0.584061,-0.09593 -0.948785,-0.09317 -1.45385,-0.09778 v -0.0028 c -0.127738,-0.253685 -0.04706,-0.671572 -0.04706,-0.671572 A 1.8488281,2.0294739 0 0 1 16.32863,21.366003 l 0.01008,-0.02398 c 0.196647,-0.442793 0.184882,-0.54519 0.126896,-1.30532 -0.0395,-0.533198 -0.164714,-0.814557 -0.281526,-1.102373 0.142023,0.01476 0.343714,0.03229 0.720203,0.03783 a 3.8379991,4.2130033 0 0 0 1.039546,-0.127304 z m -4.459038,1.922465 c 0.204211,0 0.504226,0.02952 0.568094,0.09225 v 0.01291 c 0.01176,0.15221 0.138663,0.368073 0.09244,0.481539 -0.02269,0.06365 -0.08068,-0.03782 -0.161352,-0.06273 0.03446,0.239847 0.126896,0.683563 0.265559,1.025807 0.09244,0.228776 0.03446,0.392979 -0.277325,0.456631 -0.277323,0.01291 -0.634484,0 -0.934498,-0.07656 -0.346235,-0.190032 -0.462207,-0.291506 -0.392456,-0.645741 0.05714,-0.253684 0.415146,-0.544268 0.726926,-0.773046 -0.173118,0.01292 -0.358001,0.152211 -0.33447,-0.01291 0.04622,-0.329327 0.173118,-0.30442 0.253794,-0.468623 -0.01681,-0.01845 0.0706,-0.02952 0.193286,-0.02952 z"
     fill="#2b2b2b" />
</svg>
