<?xml version="1.0" encoding="UTF-8" standalone="no"?>
<svg
   xmlns:dc="http://purl.org/dc/elements/1.1/"
   xmlns:cc="http://creativecommons.org/ns#"
   xmlns:rdf="http://www.w3.org/1999/02/22-rdf-syntax-ns#"
   xmlns:svg="http://www.w3.org/2000/svg"
   xmlns="http://www.w3.org/2000/svg"
   xmlns:sodipodi="http://sodipodi.sourceforge.net/DTD/sodipodi-0.dtd"
   xmlns:inkscape="http://www.inkscape.org/namespaces/inkscape"
   inkscape:version="1.0 (4035a4fb49, 2020-05-01)"
   sodipodi:docname="icon-python.svg"
   id="svg4"
   version="1.1"
   viewBox="0 0 25 25"
   height="50"
   width="50">
  <metadata
     id="metadata10">
    <rdf:RDF>
      <cc:Work
         rdf:about="">
        <dc:format>image/svg+xml</dc:format>
        <dc:type
           rdf:resource="http://purl.org/dc/dcmitype/StillImage" />
        <dc:title></dc:title>
      </cc:Work>
    </rdf:RDF>
  </metadata>
  <defs
     id="defs8" />
  <sodipodi:namedview
     inkscape:current-layer="svg4"
     inkscape:window-maximized="1"
     inkscape:window-y="-8"
     inkscape:window-x="-8"
     inkscape:cy="28.445743"
     inkscape:cx="-20.687947"
     inkscape:zoom="5.0908207"
     inkscape:snap-center="true"
     inkscape:snap-object-midpoints="true"
     showgrid="false"
     id="namedview6"
     inkscape:window-height="705"
     inkscape:window-width="1366"
     inkscape:pageshadow="2"
     inkscape:pageopacity="0"
     guidetolerance="10"
     gridtolerance="10"
     objecttolerance="10"
     borderopacity="1"
     bordercolor="#666666"
     pagecolor="#ffffff">
    <sodipodi:guide
       id="guide835"
       orientation="0,50"
       position="0,25" />
    <sodipodi:guide
       id="guide837"
       orientation="50,0"
       position="25,25" />
    <sodipodi:guide
       id="guide839"
       orientation="0,-50"
       position="25,0" />
    <sodipodi:guide
       id="guide841"
       orientation="-50,0"
       position="0,0" />
  </sodipodi:namedview>
  <path
     style="stroke-width:0.984427;stroke-miterlimit:4;stroke-dasharray:none"
     id="path2"
     d="m 10.998331,7.4944385 h 1.001113 m -2.50278,1.501669 V 6.493326 a 1.0011124,1.0011124 0 0 1 1.001111,-1.0011124 h 4.00445 a 1.0011124,1.0011124 0 0 1 1.001111,1.0011124 v 5.005562 A 1.0011124,1.0011124 0 0 1 14.502225,12.5 h -4.00445 a 1.0011124,1.0011124 0 0 0 -1.001111,1.001112 v 5.005562 a 1.0011124,1.0011124 0 0 0 1.001111,1.001112 h 4.00445 a 1.0011124,1.0011124 0 0 0 1.001111,-1.001112 V 16.003893 M 13.000556,9.4966631 H 6.4933261 A 1.0011124,1.0011124 0 0 0 5.4922137,10.497775 v 5.005561 A 1.0011124,1.0011124 0 0 0 6.4933261,16.50445 H 9.496664 m 2.50278,-1.001114 h 6.50723 a 1.0011124,1.0011124 0 0 0 1.001112,-1.001111 V 9.4966631 a 1.0011124,1.0011124 0 0 0 -1.001112,-1.001112 h -3.003338 m -2.50278,9.0100109 h 1.001113"
     stroke="#2b2b2b"
     fill="none" />
</svg>
