<?xml version="1.0" encoding="UTF-8" standalone="no"?>
<svg
   xmlns:dc="http://purl.org/dc/elements/1.1/"
   xmlns:cc="http://creativecommons.org/ns#"
   xmlns:rdf="http://www.w3.org/1999/02/22-rdf-syntax-ns#"
   xmlns:svg="http://www.w3.org/2000/svg"
   xmlns="http://www.w3.org/2000/svg"
   xmlns:sodipodi="http://sodipodi.sourceforge.net/DTD/sodipodi-0.dtd"
   xmlns:inkscape="http://www.inkscape.org/namespaces/inkscape"
   inkscape:version="1.0 (4035a4fb49, 2020-05-01)"
   sodipodi:docname="icon-cpp.svg"
   id="svg4"
   version="1.1"
   viewBox="0 0 160 160"
   height="200"
   width="200">
  <metadata
     id="metadata10">
    <rdf:RDF>
      <cc:Work
         rdf:about="">
        <dc:format>image/svg+xml</dc:format>
        <dc:type
           rdf:resource="http://purl.org/dc/dcmitype/StillImage" />
        <dc:title />
      </cc:Work>
    </rdf:RDF>
  </metadata>
  <defs
     id="defs8" />
  <sodipodi:namedview
     inkscape:snap-object-midpoints="true"
     inkscape:guide-bbox="true"
     showguides="true"
     inkscape:snap-center="true"
     inkscape:current-layer="svg4"
     inkscape:window-maximized="1"
     inkscape:window-y="-8"
     inkscape:window-x="-8"
     inkscape:cy="15.51144"
     inkscape:cx="-270.76739"
     inkscape:zoom="0.81472157"
     showgrid="false"
     id="namedview6"
     inkscape:window-height="705"
     inkscape:window-width="1366"
     inkscape:pageshadow="2"
     inkscape:pageopacity="0"
     guidetolerance="10"
     gridtolerance="10"
     objecttolerance="10"
     borderopacity="1"
     bordercolor="#666666"
     pagecolor="#ffffff"
     inkscape:document-rotation="0" />
  <path
     style="fill:none;stroke:#0a010e;stroke-width:1.55762;stroke-miterlimit:4;stroke-dasharray:none;stroke-opacity:1"
     id="path2"
     d="m 67.125825,95.294521 2.111366,12.565189 c -1.338927,0.72095 -3.50178,1.39041 -6.385585,2.00837 -2.93532,0.66946 -6.385593,1.02993 -10.350846,1.02993 -11.380761,-0.20596 -19.929207,-3.60477 -25.645345,-10.09335 -5.767632,-6.540069 -8.651441,-14.83104 -8.651441,-24.872904 0.257498,-11.895733 3.707763,-21.010638 10.299332,-27.396227 6.797564,-6.437084 15.243024,-9.73288 25.439362,-9.73288 3.862256,0 7.209543,0.360472 9.990362,0.978435 2.78082,0.617939 4.840695,1.287416 6.179606,2.059871 l -2.986811,12.82268 -5.458649,-1.750897 C 59.607309,52.397788 57.238464,52.14029 54.50914,52.14029 48.535526,52.0892 43.591841,53.99417 39.729582,57.804931 c -3.91374,3.759254 -5.922116,9.526877 -6.076604,17.199885 0,7.003564 1.905378,12.462204 5.561643,16.478935 3.656264,3.96525 8.80594,6.02512 15.397512,6.07662 l 6.849055,-0.61794 c 2.21436,-0.41197 4.068239,-0.97843 5.664637,-1.64788 m 2.574839,-25.59386 H 80 V 59.401348 H 90.299336 V 69.700691 H 100.59866 V 80.00002 H 90.299336 V 90.299361 H 80 V 80 H 69.700664 V 69.700664 m 36.047676,0 h 10.29933 v -10.29934 h 10.29934 v 10.29934 h 10.29934 V 80 H 126.34701 V 90.299341 H 116.04767 V 80 h -10.29933 z"
     fill="#2b2b2b" />
  <rect
     y="0"
     x="0"
     height="160"
     width="160"
     id="rect830"
     style="opacity:0.997;fill:none;fill-rule:evenodd;stroke:none;stroke-width:1.78483;stroke-linecap:round;stroke-miterlimit:4;stroke-dasharray:none;stroke-opacity:1;paint-order:stroke markers fill" />
</svg>
