<?xml version="1.0" encoding="UTF-8" standalone="no"?>
<svg
   xmlns:dc="http://purl.org/dc/elements/1.1/"
   xmlns:cc="http://creativecommons.org/ns#"
   xmlns:rdf="http://www.w3.org/1999/02/22-rdf-syntax-ns#"
   xmlns:svg="http://www.w3.org/2000/svg"
   xmlns="http://www.w3.org/2000/svg"
   xmlns:sodipodi="http://sodipodi.sourceforge.net/DTD/sodipodi-0.dtd"
   xmlns:inkscape="http://www.inkscape.org/namespaces/inkscape"
   inkscape:version="1.0 (4035a4fb49, 2020-05-01)"
   sodipodi:docname="icon-github.svg"
   id="svg4"
   version="1.1"
   class="feather feather-github"
   stroke-linejoin="round"
   stroke-linecap="round"
   stroke-width="2"
   stroke="currentColor"
   fill="none"
   viewBox="0 0 200.00002 200.00002"
   height="200.00002"
   width="200.00002">
  <metadata
     id="metadata10">
    <rdf:RDF>
      <cc:Work
         rdf:about="">
        <dc:format>image/svg+xml</dc:format>
        <dc:type
           rdf:resource="http://purl.org/dc/dcmitype/StillImage" />
      </cc:Work>
    </rdf:RDF>
  </metadata>
  <defs
     id="defs8" />
  <sodipodi:namedview
     inkscape:snap-object-midpoints="true"
     inkscape:snap-center="true"
     inkscape:current-layer="svg4"
     inkscape:window-maximized="1"
     inkscape:window-y="-8"
     inkscape:window-x="-8"
     inkscape:cy="83.651644"
     inkscape:cx="31.384288"
     inkscape:zoom="1.1249231"
     showgrid="false"
     id="namedview6"
     inkscape:window-height="705"
     inkscape:window-width="1366"
     inkscape:pageshadow="2"
     inkscape:pageopacity="0"
     guidetolerance="10"
     gridtolerance="10"
     objecttolerance="10"
     borderopacity="1"
     bordercolor="#666666"
     pagecolor="#ffffff" />
  <path
     style="fill:none;fill-opacity:1;stroke:#0a010e;stroke-width:3.75;stroke-miterlimit:4;stroke-dasharray:none;stroke-opacity:1"
     id="path2"
     d="m 79.8092,156.78467 c -37.5,11.25 -37.5,-18.75 -52.499999,-22.5 M 132.3092,179.28466 v -29.02499 a 25.274999,25.274999 0 0 0 -7.05,-19.575 c 23.55,-2.625 48.3,-11.55 48.3,-52.5 a 40.8,40.8 0 0 0 -11.25,-28.124999 38.025,38.025 0 0 0 -0.675,-28.275 c 0,0 -8.85,-2.625 -29.325,11.1 a 100.35,100.35 0 0 0 -52.5,0 c -20.474999,-13.725 -29.325,-11.1 -29.325,-11.1 a 38.025,38.025 0 0 0 -0.675,28.275 40.8,40.8 0 0 0 -11.249999,28.35 c 0,40.649999 24.749999,49.574999 48.299999,52.499999 a 25.274999,25.274999 0 0 0 -7.05,19.35 v 29.02499" />
  <rect
     y="0.4342005"
     x="0.4342005"
     height="200"
     width="200"
     id="rect835"
     style="opacity:0.997;fill:none;fill-opacity:1;fill-rule:evenodd;stroke:none;stroke-width:0.872188;stroke-linecap:round;stroke-miterlimit:4;stroke-dasharray:none;stroke-opacity:1;paint-order:stroke markers fill" />
</svg>
