<?xml version="1.0" encoding="UTF-8" standalone="no"?>
<svg
   xmlns:dc="http://purl.org/dc/elements/1.1/"
   xmlns:cc="http://creativecommons.org/ns#"
   xmlns:rdf="http://www.w3.org/1999/02/22-rdf-syntax-ns#"
   xmlns:svg="http://www.w3.org/2000/svg"
   xmlns="http://www.w3.org/2000/svg"
   xmlns:sodipodi="http://sodipodi.sourceforge.net/DTD/sodipodi-0.dtd"
   xmlns:inkscape="http://www.inkscape.org/namespaces/inkscape"
   inkscape:version="1.0 (4035a4fb49, 2020-05-01)"
   sodipodi:docname="icon-vuejs.svg"
   id="svg4"
   version="1.1"
   viewBox="0 0 24 24"
   height="30"
   width="30">
  <metadata
     id="metadata10">
    <rdf:RDF>
      <cc:Work
         rdf:about="">
        <dc:format>image/svg+xml</dc:format>
        <dc:type
           rdf:resource="http://purl.org/dc/dcmitype/StillImage" />
      </cc:Work>
    </rdf:RDF>
  </metadata>
  <defs
     id="defs8" />
  <sodipodi:namedview
     inkscape:current-layer="svg4"
     inkscape:window-maximized="1"
     inkscape:window-y="-8"
     inkscape:window-x="-8"
     inkscape:cy="15"
     inkscape:cx="15"
     inkscape:zoom="14.399015"
     showgrid="false"
     id="namedview6"
     inkscape:window-height="705"
     inkscape:window-width="1366"
     inkscape:pageshadow="2"
     inkscape:pageopacity="0"
     guidetolerance="10"
     gridtolerance="10"
     objecttolerance="10"
     borderopacity="1"
     bordercolor="#666666"
     pagecolor="#ffffff" />
  <path
     style="stroke-width:0.921995"
     id="path2"
     d="m 21.995182,3.9028797 a 0.45615447,0.46403023 0 0 0 -0.396736,-0.23341 l -4.561544,-0.00279 -0.0064,-0.00185 -3.656502,-0.02418 h -0.0027 a 0.45524034,0.46310031 0 0 0 -0.393172,0.227823 L 11.998177,5.5469788 11.02005,3.8917207 A 0.45524034,0.46310031 0 0 0 10.63337,3.6648201 L 6.9768217,3.6397123 h -0.00457 a 0.43878586,0.44636173 0 0 0 -0.092325,0.025108 H 2.4015649 a 0.45706861,0.46496015 0 0 0 -0.3949073,0.6993 L 11.605099,21.102685 a 0.45706861,0.46496015 0 0 0 0.789814,0 L 21.993354,4.3687697 a 0.45706861,0.46496015 0 0 0 0.0018,-0.46589 z m -11.625997,0.6900008 1.238656,2.10069 a 0.45706861,0.46496015 0 0 0 0.392164,0.2259706 h 9.15e-4 a 0.45706861,0.46496015 0 0 0 0.392165,-0.2278304 l 1.236827,-2.1202183 2.587009,0.018598 -2.747897,4.572418 L 12.000005,11.60634 7.7894897,4.575212 Z M 12.000005,19.945864 3.1968643,4.5947404 h 3.5194283 l 4.8933764,8.1461026 a 0.45066965,0.45845071 0 0 0 0.134378,0.132048 c 0.0128,0.0093 0.0192,0.02417 0.03199,0.03161 a 0.45706861,0.46496015 0 0 0 0.614301,-0.162736 l 4.893376,-8.1451717 3.519428,0.00186 z"
     fill="#2b2b2b" />
</svg>
