<?xml version="1.0" encoding="UTF-8" standalone="no"?>
<svg
   xmlns:dc="http://purl.org/dc/elements/1.1/"
   xmlns:cc="http://creativecommons.org/ns#"
   xmlns:rdf="http://www.w3.org/1999/02/22-rdf-syntax-ns#"
   xmlns:svg="http://www.w3.org/2000/svg"
   xmlns="http://www.w3.org/2000/svg"
   xmlns:sodipodi="http://sodipodi.sourceforge.net/DTD/sodipodi-0.dtd"
   xmlns:inkscape="http://www.inkscape.org/namespaces/inkscape"
   inkscape:version="1.0 (4035a4fb49, 2020-05-01)"
   height="200"
   width="200"
   sodipodi:docname="icon-scss.svg"
   xml:space="preserve"
   viewBox="0 0 200 200"
   y="0px"
   x="0px"
   id="Layer_1"
   version="1.1"><metadata
   id="metadata11"><rdf:RDF><cc:Work
       rdf:about=""><dc:format>image/svg+xml</dc:format><dc:type
         rdf:resource="http://purl.org/dc/dcmitype/StillImage" /></cc:Work></rdf:RDF></metadata><defs
   id="defs9" /><sodipodi:namedview
   inkscape:snap-center="true"
   inkscape:snap-object-midpoints="true"
   inkscape:current-layer="Layer_1"
   inkscape:window-maximized="1"
   inkscape:window-y="-8"
   inkscape:window-x="-8"
   inkscape:cy="106.37631"
   inkscape:cx="118.90275"
   inkscape:zoom="1.1931611"
   showgrid="false"
   id="namedview7"
   inkscape:window-height="705"
   inkscape:window-width="1366"
   inkscape:pageshadow="2"
   inkscape:pageopacity="0"
   guidetolerance="10"
   gridtolerance="10"
   objecttolerance="10"
   borderopacity="1"
   bordercolor="#666666"
   pagecolor="#ffffff" />
<title
   id="title2">sass</title>
<g
   id="g850"><path
     style="fill:none;fill-opacity:1;stroke:#0a010e;stroke-width:3.59897;stroke-miterlimit:4;stroke-dasharray:none;stroke-opacity:1"
     d="M 172.3175,34.492111 C 167.27894,14.33789 133.44864,7.1399537 101.05793,18.656652 82.343304,25.854588 61.469284,36.651492 46.353614,50.327569 c -17.99483,16.555246 -20.15422,30.951119 -19.43442,36.709467 4.31876,20.874014 33.11051,35.269884 45.347,45.347004 v 0 c -3.59897,1.43958 -29.51154,14.39587 -35.26989,28.07194 -6.47814,14.39587 0.71979,24.47298 5.75835,25.19277 15.11566,4.31876 30.95112,-3.59897 38.86885,-15.83546 7.91773,-12.23649 7.19794,-27.35214 3.59897,-35.26987 5.03856,-1.43959 10.07711,-2.15938 17.275046,-0.7198 20.15422,2.15938 24.47298,15.11567 23.03339,20.15422 -1.43958,5.03855 -5.03855,7.91772 -6.47814,9.35731 -1.43959,0.71979 -2.15938,1.43959 -1.43959,1.43959 0,0.71979 0.7198,0.71979 2.15938,0.71979 1.43959,0 10.79691,-4.31876 10.79691,-14.39586 0.71979,-12.23649 -11.5167,-25.91257 -32.390706,-25.91257 -8.63753,0 -14.39587,0.71979 -17.99484,2.15938 0,-0.71979 -0.7198,-0.71979 -0.7198,-0.71979 -12.95628,-13.67608 -36.70947,-23.75319 -35.98968,-42.467828 0,-6.478142 2.87917,-24.472982 46.06679,-46.066783 35.269886,-17.99484 64.061626,-12.956285 69.100186,-2.159381 7.19793,15.115665 -15.11567,43.907402 -51.82514,48.226164 -14.395866,1.439587 -21.593806,-3.598968 -23.033386,-5.758349 -2.15939,-2.159381 -2.15939,-2.159381 -2.87918,-2.159381 -1.43959,0.719794 -0.71979,2.159381 0,3.598968 1.43959,2.879175 5.75835,7.91773 13.67608,10.796901 6.478136,2.15938 23.033386,3.59897 43.187606,-4.318758 22.31361,-8.637523 39.58865,-32.390709 34.5501,-52.544926 z"
     id="path844" /><path
     style="fill:none;fill-opacity:1;stroke:#0a010e;stroke-width:3.59897;stroke-miterlimit:4;stroke-dasharray:none;stroke-opacity:1"
     d="m 77.304744,138.86218 c 1.43959,6.47814 1.43959,12.23649 0,17.27503 l -0.71979,2.15938 c 0,0.7198 -0.71979,1.43959 -0.71979,1.43959 -1.43959,2.87918 -2.87918,5.03856 -5.03856,7.91773 -6.47814,7.19794 -15.83547,10.07711 -20.15423,7.91773 -4.31876,-2.15938 -2.15938,-12.95628 5.75835,-20.87401 8.63753,-8.63752 20.15423,-14.39587 20.15423,-14.39587 v 0 z"
     id="path842" /></g>
<rect
   y="0"
   x="0"
   height="200"
   width="200"
   id="rect846"
   style="opacity:0.997;fill:none;fill-opacity:1;fill-rule:evenodd;stroke:none;stroke-width:0.837652;stroke-linecap:round;stroke-miterlimit:4;stroke-dasharray:none;stroke-opacity:1;paint-order:stroke markers fill" /></svg>
