<?xml version="1.0" encoding="UTF-8" standalone="no"?>
<svg
   xmlns:dc="http://purl.org/dc/elements/1.1/"
   xmlns:cc="http://creativecommons.org/ns#"
   xmlns:rdf="http://www.w3.org/1999/02/22-rdf-syntax-ns#"
   xmlns:svg="http://www.w3.org/2000/svg"
   xmlns="http://www.w3.org/2000/svg"
   xmlns:sodipodi="http://sodipodi.sourceforge.net/DTD/sodipodi-0.dtd"
   xmlns:inkscape="http://www.inkscape.org/namespaces/inkscape"
   inkscape:version="1.0 (4035a4fb49, 2020-05-01)"
   sodipodi:docname="icon-gsap.svg"
   id="svg4"
   version="1.1"
   viewBox="0 0 160 160"
   height="200"
   width="200">
  <metadata
     id="metadata10">
    <rdf:RDF>
      <cc:Work
         rdf:about="">
        <dc:format>image/svg+xml</dc:format>
        <dc:type
           rdf:resource="http://purl.org/dc/dcmitype/StillImage" />
        <dc:title />
      </cc:Work>
    </rdf:RDF>
  </metadata>
  <defs
     id="defs8" />
  <sodipodi:namedview
     inkscape:current-layer="svg4"
     inkscape:window-maximized="1"
     inkscape:window-y="-8"
     inkscape:window-x="-8"
     inkscape:cy="105.77037"
     inkscape:cx="69.237712"
     inkscape:zoom="1.6294431"
     showgrid="false"
     id="namedview6"
     inkscape:window-height="705"
     inkscape:window-width="1366"
     inkscape:pageshadow="2"
     inkscape:pageopacity="0"
     guidetolerance="10"
     gridtolerance="10"
     objecttolerance="10"
     borderopacity="1"
     bordercolor="#666666"
     pagecolor="#ffffff"
     inkscape:document-rotation="0"
     inkscape:snap-object-midpoints="true"
     inkscape:snap-center="true"
     showguides="true"
     inkscape:guide-bbox="true" />
  <path
     style="fill:none;fill-opacity:1;stroke:#0a010e;stroke-width:1.71037;stroke-miterlimit:4;stroke-dasharray:none;stroke-opacity:1"
     id="path2"
     d="m 109.77149,4.7466406 c -3.11374,0.018814 -6.19321,0.8403855 -7.1759,2.3016524 -0.62845,1.0348035 -1.09695,7.500753 -0.62845,10.774495 0,0 0.18284,2.163674 0.51416,3.85072 a 83.41413,91.564369 0 0 1 -0.11429,1.141415 40.130195,44.051248 0 0 1 -0.55421,3.794278 c -0.0569,0.351181 -1.18266,0.595815 -2.428154,0.953277 a 14.254675,15.647475 0 0 0 -0.78842,-0.263396 c -1.33691,-0.432757 -2.19962,0.771397 -3.53082,1.630596 -0.39419,-0.250869 -2.11963,-1.116336 -3.06232,-0.514282 -0.9427,0.602066 -1.57116,1.210401 -2.51385,1.636868 -0.46848,-0.257111 -1.72542,-0.257111 -2.74238,0.175655 a 7.2558869,7.9648466 0 0 0 -2.75949,1.743484 c -13.220563,3.63749 -27.498094,10.253952 -28.63504,10.918738 -5.810417,3.273746 -15.305919,8.874224 -19.619459,12.750028 -7.375868,6.716813 -11.769393,14.562504 -13.500519,20.332304 -2.199618,7.149554 -1.57116,11.458098 0.548464,8.698625 1.702558,-2.29539 9.324103,-9.118815 14.140408,-12.536796 l -0.01146,0.04438 a 18.391101,20.188064 0 0 1 2.513842,-1.630831 l 1.331201,-0.777674 2.88521,-2.0257 c 3.439407,3.461882 4.587782,8.9871 5.353364,16.494121 1.256923,11.545908 9.735458,16.889242 19.619458,17.058582 10.283931,0.17562 13.974721,2.50235 17.819761,8.18436 0.87414,1.26057 1.81684,1.92535 2.68526,2.30792 a 11.163782,12.254576 0 0 0 -0.91413,2.53996 c -0.42852,1.06617 -0.71417,2.38319 -0.89699,3.8131 a 0.8969876,0.98463063 0 0 0 -0.17142,0.47042 c -0.38851,3.36154 -0.31424,11.28876 -0.38851,15.5095 -0.08,4.22074 -0.16005,4.82907 -0.47416,5.43114 -0.31424,0.68987 -0.62845,1.11634 -1.01698,2.92881 -0.39419,1.894 -1.10266,2.40827 -1.8054,3.95734 -1.17693,2.41454 -0.94269,5.07994 0.23432,6.29034 1.17694,1.20414 4.39925,3.01661 8.78705,2.41455 4.39924,-0.60208 5.0277,-0.94701 4.31925,-5.60048 -0.08,-0.68987 -1.09695,-3.79428 -0.78273,-4.99842 0.46848,-1.29193 -0.54852,-3.53087 -0.31423,-3.61867 0.23432,-0.0877 0.54852,-1.8062 0.54852,-2.67168 0,-0.85919 -0.08,-4.99214 0.78272,-7.14954 0.35431,-0.87801 1.10267,-2.8849 1.86253,-4.92315 2.525284,-4.53433 2.622414,-7.28125 2.742394,-8.84286 0.17142,-1.26686 0.26279,-2.88491 0.10288,-4.66602 0.31423,-0.52051 1.65113,-1.72468 1.80539,-4.05141 0,0 3.67936,-2.11351 6.29606,-7.19973 0.91412,3.49325 1.77112,5.70711 1.634,7.97739 -2.85093,2.44591 -3.9079,4.2521 -4.34211,6.01441 -0.27422,-0.12542 -0.43425,-0.23202 -0.62845,-0.25087 h -0.15423 a 2.4967105,2.7406598 0 0 0 -0.60568,0.1819 c -1.09695,0.42648 -0.23432,8.26588 0.94269,11.45808 1.17695,3.18594 1.80541,5.07994 2.2739,8.52929 0.47416,3.44306 -1.09695,7.66381 -1.72542,9.55781 0,0 -1.02267,3.36155 1.3312,5.16775 2.04536,1.55534 9.73546,1.12887 13.18629,1.12887 3.45654,0 8.6328,1.37347 11.92936,0.6836 4.08501,-0.77767 4.70776,-3.44934 2.27962,-4.82909 -2.43388,-1.37972 -6.12466,-2.06332 -10.91241,-5.85133 -1.25692,-0.95327 -2.98234,-1.81247 -3.21658,-2.58387 -0.23428,-0.77768 -0.23428,-5.25555 -0.15424,-9.13763 0.0742,-3.8758 1.25692,-8.86794 1.64543,-11.53961 0.36572,-2.49608 -0.43426,-2.43336 -1.49689,-2.20131 0.18283,-0.92192 0.37713,-1.8313 0.55421,-2.79711 1.96537,-3.9636 1.10266,-7.67008 1.10266,-7.67008 4.68491,-6.547487 2.28532,-20.507921 1.25693,-25.387175 3.6565,1.900278 5.48477,1.17905 5.48477,1.17905 0.58276,-0.344896 1.09694,-0.840389 1.56543,-1.404827 1.92527,-2.270261 2.91368,-5.744693 2.91368,-5.744693 v -0.169369 c 4.46789,-4.910802 6.5761,-12.141881 1.48556,-16.88316 a 7.6043973,8.34741 0 0 0 -1.25136,-7.920955 8.9127433,9.7835909 0 0 0 -2.11392,-10.856023 7.7700832,8.5292845 0 0 0 -2.78238,-1.862641 c -1.14265,-1.850105 -1.39975,-2.615238 -3.268,-2.18877 -0.857,-1.034802 -1.01698,-1.8062 -2.82237,-1.116331 0,0 -0.54852,-1.467538 -1.57116,-1.812472 a 1.4283241,1.5678831 0 0 0 -0.28563,-0.09403 c -1.72542,-1.317026 -3.29087,-1.348377 -4.41067,-1.003451 -0.36572,-0.301067 -0.34861,-0.777666 -0.39988,-2.433353 -0.0454,-1.254302 -0.10861,-3.047963 -0.17711,-4.666017 0.15423,-2.057063 0.58276,-6.108471 0.71987,-8.171806 0.15992,-2.320491 0.24,-5.9454367 -0.70274,-7.4945053 -1.10268,-1.7310988 -4.23928,-2.502497 -7.34731,-2.4836825 z m -0.0291,2.1323209 c 3.99931,0 5.72473,1.3797376 5.96469,2.1511351 0.0742,0.1756077 0.46847,3.1044094 0.22859,4.9984124 -0.0742,0.689869 -0.15423,3.192211 -0.30855,4.308541 -0.08,1.122603 -0.3942,2.414539 -0.70846,4.220737 -0.23427,1.467544 -1.33119,3.104413 -2.1939,3.361546 -1.49117,0.432757 -4.23927,0.344895 -5.81042,0 -0.39419,-0.08779 -0.70844,-0.344896 -1.09695,-0.602067 -0.86231,-1.555337 -1.33652,-2.759474 -1.49077,-4.653481 -0.15994,-1.812468 -0.47417,-2.583861 -0.54852,-3.963602 -0.08,-2.069604 -0.08,-3.449342 -0.08,-3.449342 0.08,-1.116333 0.39419,-3.8758078 0.39419,-4.1329393 0.0742,-0.7713992 1.3312,-2.2389376 5.65046,-2.2389376 z M 103.26968,23.82464 c 0.83415,0.93446 1.71971,1.919089 2.46815,2.608957 0.70844,0.689868 2.43386,0.602067 3.99931,0.602067 1.41689,0 2.67382,0.175612 3.2223,-0.169369 0.87984,-0.482893 2.02822,-1.473811 2.98805,-2.470981 0.0626,0.953273 0.12572,1.906547 0.14851,2.728117 0.0569,1.8501 -0.2457,2.935072 0.13712,3.574771 -0.46847,0.301067 -0.99411,0.658513 -1.53687,0.97836 -0.86271,0.50171 -1.74827,0.85293 -2.30246,0.721228 h -0.0115 c -1.19469,-0.219483 -5.31969,-1.348377 -7.60501,-2.55251 -0.95412,-1.624323 -1.91395,-2.496072 -1.86253,-2.809642 0.15423,-0.859203 0.22859,-1.549071 0.30855,-2.665406 0.0218,-0.18817 0.0291,-0.363718 0.0454,-0.551876 z m -4.873444,4.327359 0.19994,0.0064 c 2.422454,0.225769 3.713644,0.953278 4.616354,1.781121 l 0.43425,0.188183 0.0454,-0.169369 c 0.26853,0.188183 0.58277,0.376281 0.92556,0.551872 2.68525,0.997169 6.30748,1.931629 7.4787,2.213848 1.41119,0.344895 3.68507,-1.204137 4.78774,-1.981803 1.95967,-1.379732 4.47351,-0.250825 5.65045,1.210406 0.78273,0.940727 1.09697,1.549071 1.09697,1.806195 1.8054,-0.689864 2.03964,0.257111 2.90235,1.291943 2.19961,-1.122604 2.35387,0.257111 2.51385,0.859199 -0.69703,0 -1.70256,0.08778 -3.07376,0.250825 l -0.0685,-0.07521 c -0.82282,-0.959547 -2.29686,-1.812473 -3.42237,-2.40827 -0.49706,-0.194469 -1.02839,-0.307311 -1.43976,-0.60834 -0.62846,-0.344895 -1.25692,-0.859198 -2.19962,-0.771397 -3.92503,0.514282 -4.70776,1.975534 -8.08431,1.116336 -3.29657,-0.840394 -4.21069,-1.592977 -7.61582,-1.386009 l 0.006,0.163083 c -0.5999,0.100313 -1.14266,0.188183 -1.25693,0.188183 -1.17694,0.07521 -4.125004,0.420195 -6.587424,-0.627149 a 7.1759003,7.8770448 0 0 0 -0.9198,-0.476576 l -0.0291,-0.0124 h -0.006 c -1.02823,-0.438995 -2.22801,-0.689846 -3.59921,-0.702388 h -0.1485 c 1.2455,-0.689868 2.03393,-1.624327 3.19944,-1.36719 1.25692,0.257111 2.51385,1.379732 3.2223,2.238935 a 4.9020083,5.3809753 0 0 0 -1.01654,-1.806271 c 0.7313,-0.564447 1.39976,-1.436187 2.38816,-1.467546 z m -6.28463,3.417981 c 0.857,0.0124 1.59973,0.163084 2.38245,0.457853 0.10287,0.05627 0.19425,0.112884 0.33707,0.181897 1.64544,0.859203 4.62777,1.028534 7.141624,0.859203 a 12.91205,14.173664 0 0 0 3.21658,-0.595815 c 1.83969,0.150513 2.93665,0.689868 5.5819,1.354654 1.77112,0.439043 2.86808,0.282211 3.97074,-0.04391 1.10267,-0.332452 2.20534,-0.815293 4.13072,-1.066161 a 3.0966067,3.3991707 0 0 1 1.0741,0.0815 c 0.21704,0.125412 0.42851,0.250825 0.62845,0.382566 0.35417,0.30731 1.22264,0.846658 1.95965,1.185319 0.93699,0.42648 3.37085,2.238939 3.68508,2.665402 a 0.57132963,0.62715328 0 0 0 0.21705,0.188183 c 1.38261,1.969262 2.3253,4.735011 2.26245,7.588554 -0.34275,2.884907 -2.43386,1.342108 -3.57651,0.752587 -2.35385,-1.116339 -4.70772,-1.894009 -7.45583,-1.894009 -2.74238,0 -6.27891,0.257111 -9.34124,1.122612 -4.23355,1.291943 -5.49048,1.204146 -7.37015,0.169369 -1.885664,-1.116562 -5.182244,-3.876038 -5.182244,-3.876038 v 0.06264 c -0.0398,-0.04391 -0.0685,-0.07521 -0.0799,-0.06264 -0.24,0.432761 -0.78843,1.549075 -1.10266,2.069613 -0.15423,3.273733 -1.95966,8.441479 -5.33622,9.733414 a 3.1251732,3.4305283 0 0 1 -2.66816,-0.257111 14.300381,15.697646 0 0 0 -3.14231,-1.724675 c 2.74809,2.40827 4.16499,4.220742 5.42192,7.406678 0.99411,2.696766 2.37101,6.378152 5.72471,10.322939 2.07394,-0.0248 4.14215,0.608399 5.496204,2.169956 0.78273,0.859199 2.03965,1.812477 1.88539,2.671671 0,0.257154 -0.47416,0.947001 -0.8627,1.467542 a 18.459661,20.263322 0 0 1 -1.182664,1.379728 c -0.30855,0.250868 -1.41119,1.204146 -1.64544,1.379745 -0.23432,0.169369 -0.54846,0.595815 -0.78272,0.683591 -0.78843,0.432808 -1.65114,0.08778 -2.43386,-0.344896 -0.78272,-0.432757 0.15423,-0.514217 -0.70845,-1.204132 -1.94252,-1.505132 -3.0909,-2.577567 -2.59385,-5.217882 -5.32479,-4.979641 -14.63175,-7.902171 -16.6314,-13.220435 -1.25692,-3.449336 -1.4169,-5.167742 -0.24001,-6.63528 3.45655,-4.308544 2.11964,-8.44148 4.71348,-10.247684 2.42814,-1.724674 4.47351,0.250869 5.65045,2.069609 -0.70845,-3.192212 -3.14231,-3.969882 -3.14231,-4.22701 0,-3.963614 3.45653,-6.716818 6.91308,-7.406687 1.2455,-0.25711 2.22248,-0.388809 3.08518,-0.37628 z m -10.55245,3.349002 c -0.79986,1.22922 -1.31977,2.728117 -1.40547,4.52178 -1.17694,0.175569 -3.84505,0.344895 -5.18196,5.688275 a 19.368075,21.260496 0 0 1 -1.22295,3.88835 c -0.58845,0.28221 -16.831358,7.989934 -29.874817,15.942231 l -0.05687,-0.04391 c -1.828276,1.128894 -3.582258,2.276584 -5.250543,3.424275 l -0.71414,0.482892 -0.0055,0.01881 C 31.356632,73.375438 26.191816,77.934846 22.780976,82.086609 25.134854,65.285166 37.224189,56.498747 42.948913,52.622944 56.775091,43.284629 69.395764,38.668783 81.559366,34.918405 Z m 45.917774,2.025708 c 1.48545,-0.0248 3.06232,0.376281 4.31925,1.724666 3.37084,3.61868 2.42815,7.582285 1.41118,10.335489 0.857,1.122604 2.90235,4.308544 1.64543,8.09655 -0.2286,0.865468 -1.95966,0.865468 -3.21659,3.104403 3.14232,-1.981799 5.10198,-1.461261 5.81043,1.034806 1.09695,3.875808 -1.33692,8.529282 -3.45655,11.113155 0,-0.08774 -0.08,-0.175655 -0.08,-0.257154 -0.31423,1.291931 -0.70273,3.787998 -3.05661,6.547483 -1.17694,1.379737 -2.11963,1.204133 -3.45654,0.859203 -1.22836,-0.33861 -1.83968,-0.890562 -3.10232,-1.730951 -0.20563,-1.298212 -0.58277,-3.022874 -0.58277,-3.700209 0,-0.275968 -0.0218,-0.884286 -0.0569,-1.523976 0.18284,-0.225768 0.3771,-0.464134 0.60562,-0.714955 0,0 1.01697,-1.549067 2.51386,-1.461274 1.48544,0.08774 3.05661,-0.257153 3.45082,-0.689863 0,-3.010333 -3.14231,-3.098134 -2.03965,-8.272154 0.0742,-0.250868 0.46848,-0.689864 1.72542,-0.859199 -1.8855,-0.432705 -2.7425,-0.520507 -4.07941,-1.893971 l -0.0742,-0.0815 c 0.62845,-1.586695 1.27977,-2.866092 1.71969,-3.794274 1.10267,-2.414543 0.46848,-5.343346 0.46848,-5.343346 1.18266,-0.432757 2.19962,-1.122604 2.35959,-1.549067 1.1598,-4.220742 -0.93698,-8.290968 -3.45654,-10.912469 0.20563,-0.01839 0.41703,-0.03079 0.62846,-0.03806 z m -31.194614,5.801164 c 0.0569,0.100313 0.1143,0.206912 0.19426,0.313596 1.02269,1.379741 3.29658,3.104407 6.358904,4.220738 1.48546,0.520507 2.66812,0.175612 3.99932,-0.169369 6.41603,-1.743489 13.16343,-2.169952 19.02527,0.972087 a 10.3982,11.414189 0 0 1 -0.89698,6.698 c -1.32548,2.916257 -3.04519,6.697991 -2.74239,13.891445 -1.40547,0.275968 -8.10717,0.903096 -11.38089,0.232012 -2.97662,-0.608395 -8.09003,-3.292547 -9.25554,-4.327358 a 38.296226,42.038084 0 0 1 -0.71446,-5.318246 7.8272163,8.5919998 0 0 0 2.59383,-2.151138 c -2.35387,0.42648 -3.29657,0.250868 -4.713464,-0.608331 -1.34263,-0.81531 -3.66794,-3.342733 -4.97057,-5.142664 1.30834,-1.81874 2.24532,-4.327358 1.91395,-7.688897 0.21136,-0.313595 0.39988,-0.620884 0.58276,-0.921913 z M 71.25811,52.767765 c -0.514162,1.586699 0.531286,4.101581 1.279776,5.976772 2.90235,7.394136 11.82651,8.090273 17.86547,13.671933 a 4.1307134,4.5343182 0 0 0 0.34276,2.433352 c 0.47416,1.034811 2.11963,2.590155 2.11963,2.590155 -0.31424,0.33861 -0.15424,1.028525 -0.15424,1.028525 1.16552,1.360918 2.87951,1.52398 3.12517,1.542803 -2.48529,7.826872 -4.66205,16.469038 -2.5767,25.681925 -1.02267,1.53026 -2.10248,2.79083 -3.03375,4.18938 a 4.8620152,5.3370744 0 0 1 -2.53696,-1.94417 C 84.312706,102.5951 79.364996,99.057947 70.417974,99.321353 56.997439,99.666248 51.661225,93.633073 50.644254,82.087182 50.107224,75.978707 48.604606,70.033295 45.570846,66.540045 54.232207,61.278237 66.292969,54.523795 70.109457,53.225587 a 15.99723,17.560292 0 0 0 1.142654,-0.457801 z m 19.973386,1.128877 c 2.17676,2.772018 4.54207,4.559403 6.81596,6.139829 0.46848,2.151134 0.62845,3.618672 1.09696,6.459677 h -0.23432 l -0.15423,1.931634 A 16.202908,17.786067 0 0 0 95.213616,67.7191 l 0.006,-0.01881 c -5.10195,-6.628794 -3.99928,-9.218932 -6.04463,-12.662008 0.5542,-0.213198 1.28548,-0.58953 2.05678,-1.141418 z m 33.771294,6.810879 c 0.43425,0.420195 1.01697,0.752583 1.8454,0.965823 -1.86825,4.264639 1.88538,5.719631 2.11393,7.337686 -0.81701,0.520507 -2.09679,0.232011 -3.44513,0.156841 -0.65701,-0.03677 -1.30835,0.407666 -1.83397,0.921918 l 0.18283,-2.301663 c 0.0351,-2.696754 0.51417,-5.073668 1.14266,-7.086822 z m -23.34453,6.422053 c 0.13713,0.219483 1.01697,0.821575 5.72473,2.207576 5.86184,1.724674 13.27199,0.752587 14.56891,0.564507 a 2.159626,2.3706394 0 0 1 -0.12571,0.558161 c 0,2.151142 0.31423,3.700204 0.54851,5.079949 0.30283,1.931629 0.74273,3.342717 0.93127,4.640928 l 0.0454,-0.04438 c 1.33691,8.573191 3.20515,19.648714 -1.52545,25.387165 0.23428,1.20414 0.39424,2.92881 0.08,4.91062 a 18.305401,20.093991 0 0 1 -0.86271,3.35525 13.083449,14.36181 0 0 0 -0.61702,2.20758 c -6.28463,0.89056 -10.02684,0.34503 -11.76939,-0.094 0.70273,-2.34556 2.3253,-4.72875 5.00484,-4.60959 -0.12571,-5.71335 -1.5083,-7.67007 -2.9195,-11.859464 2.25676,-5.537759 1.70829,-10.442096 3.54797,-17.86132 -1.41119,1.636873 -2.51386,7.582281 -3.45084,11.200961 -1.17694,5.255549 -3.21658,10.335483 -8.71278,14.386893 0,1.37974 -0.3942,2.40827 -0.8627,3.09814 -1.02268,1.63687 -2.353884,2.1574 -2.822374,4.82908 0.62845,-0.86548 1.48546,-1.63687 1.48546,-1.37974 a 48.620152,53.370744 0 0 1 -0.14282,3.09186 l 0.0685,0.006 c -0.9427,6.54748 -2.98235,9.56409 -4.23927,13.2643 -0.86271,2.67167 -0.54852,8.52928 -0.86271,8.61708 -2.19962,0.52058 -5.57046,-0.42648 -6.51315,-0.94072 0.92554,-7.14955 0.10861,-14.28655 2.49099,-22.57752 l -0.0857,-0.0368 c 0.91411,-3.47443 2.73094,-5.50641 5.36478,-9.18153 -0.91985,-3.2612 -3.03949,-10.285309 1.51973,-26.227549 0.18853,-0.08774 0.38282,-0.188226 0.5999,-0.307311 l 1.17694,-0.859198 c 0.2286,-0.175612 0.54853,-0.432762 0.782724,-0.60208 0.39424,-0.263439 2.11964,-2.326732 2.35388,-2.583869 0.54853,-0.608326 0.9427,-0.777674 1.09696,-1.467538 0.31423,-1.291939 -1.41119,-2.583873 -2.11393,-3.449336 -0.10288,-0.11917 -0.17142,-0.213326 -0.24569,-0.313596 0.0742,-0.244583 0.15423,-0.482892 0.24001,-0.714959 0.0569,-0.783943 0.15992,-1.630596 0.24,-2.301654 z m 5.04485,49.808516 c 0.28563,0.012 0.99411,0.76512 4.29069,0.99091 3.77077,0.25086 8.79276,-0.52051 10.12396,-0.86548 1.3369,-0.34489 0.55421,0.68987 0.39419,1.72467 l -0.14854,1.0599 c -2.27961,0.84038 -5.759,1.17904 -8.09003,1.26683 -2.24532,0.0816 -4.83344,-0.0752 -6.63313,-0.68986 -0.27417,-1.6306 -0.36003,-2.94761 -0.0398,-3.44934 a 0.13711917,0.15051682 0 0 1 0.10288,-0.0368 z m 14.31751,5.30572 c -0.11429,0.84665 -0.19994,1.39856 -0.33134,2.333 -2.21675,0.75259 -5.0734,0.76514 -7.25588,0.84666 a 25.212778,27.676274 0 0 1 -5.78186,-0.43899 11.797957,12.950715 0 0 1 -0.18852,-0.6836 64.805919,71.137998 0 0 1 -0.37141,-1.58042 c 1.02268,0.21332 3.02805,0.49546 6.5703,0.54559 a 23.664473,25.976689 0 0 0 7.35872,-1.02226 z m -0.6056,4.296 c -0.3942,2.75947 -0.31424,11.20096 -0.08,13.52769 0.08,0.68987 5.4162,3.27374 7.29588,4.82909 0.61132,0.53307 1.47974,0.98463 2.41101,1.39227 0.24001,0.26344 0.66272,0.65851 1.12551,1.27313 0.92556,1.33583 0.29714,2.73438 -0.77129,3.29882 -1.50831,-0.0444 -3.24515,-0.32617 -6.13608,-0.80276 -3.97074,-0.65217 -6.45032,-0.63341 -9.88399,-0.66475 v -0.0188 c -0.86843,-1.72468 -0.31993,-4.56568 -0.31993,-4.56568 a 12.569252,13.797372 0 0 1 -4.62197,-1.12908 l 0.0685,-0.16304 c 1.3369,-3.01032 1.25692,-3.70647 0.8627,-8.87422 -0.26853,-3.62494 -1.1198,-5.53775 -1.91395,-7.49447 0.96555,0.10031 2.33674,0.21948 4.8963,0.25715 a 26.092625,28.64209 0 0 0 7.06735,-0.86548 z m -30.314764,13.06987 c 1.38833,0 3.42798,0.20075 3.86219,0.62716 v 0.0877 c 0.08,1.0348 0.9427,2.50234 0.62845,3.27374 -0.15423,0.43276 -0.54852,-0.25711 -1.09695,-0.42648 0.23432,1.63061 0.86271,4.64721 1.8054,6.97395 0.62845,1.55533 0.23432,2.67166 -1.88539,3.1044 -1.88538,0.0877 -4.31354,0 -6.35318,-0.52051 -2.35388,-1.29193 -3.14232,-1.9818 -2.66811,-4.39007 0.38846,-1.72467 2.82237,-3.7002 4.942,-5.25555 -1.17694,0.0878 -2.43387,1.03481 -2.27389,-0.0877 0.31423,-2.23892 1.17694,-2.06959 1.72541,-3.18593 -0.11429,-0.12541 0.48001,-0.20075 1.31406,-0.20075 z"
     fill="#2b2b2b" />
  <rect
     y="0"
     x="0"
     height="160"
     width="160"
     id="rect834"
     style="opacity:0.997;fill:none;fill-opacity:1;fill-rule:evenodd;stroke:none;stroke-width:1.76953;stroke-linecap:round;stroke-miterlimit:4;stroke-dasharray:none;stroke-opacity:1;paint-order:stroke markers fill" />
</svg>
