<?xml version="1.0" encoding="UTF-8" standalone="no"?>
<svg
   xmlns:dc="http://purl.org/dc/elements/1.1/"
   xmlns:cc="http://creativecommons.org/ns#"
   xmlns:rdf="http://www.w3.org/1999/02/22-rdf-syntax-ns#"
   xmlns:svg="http://www.w3.org/2000/svg"
   xmlns="http://www.w3.org/2000/svg"
   xmlns:sodipodi="http://sodipodi.sourceforge.net/DTD/sodipodi-0.dtd"
   xmlns:inkscape="http://www.inkscape.org/namespaces/inkscape"
   height="200"
   width="200"
   version="1.1"
   id="Layer_1"
   x="0px"
   y="0px"
   viewBox="0 0 200 200"
   xml:space="preserve"
   sodipodi:docname="icon-jquery.svg"
   inkscape:version="1.0 (4035a4fb49, 2020-05-01)"><metadata
   id="metadata11"><rdf:RDF><cc:Work
       rdf:about=""><dc:format>image/svg+xml</dc:format><dc:type
         rdf:resource="http://purl.org/dc/dcmitype/StillImage" /></cc:Work></rdf:RDF></metadata><defs
   id="defs9" /><sodipodi:namedview
   inkscape:snap-object-midpoints="true"
   inkscape:snap-center="true"
   inkscape:document-rotation="0"
   pagecolor="#ffffff"
   bordercolor="#666666"
   borderopacity="1"
   objecttolerance="10"
   gridtolerance="10"
   guidetolerance="10"
   inkscape:pageopacity="0"
   inkscape:pageshadow="2"
   inkscape:window-width="1366"
   inkscape:window-height="705"
   id="namedview7"
   showgrid="false"
   inkscape:zoom="1.6055073"
   inkscape:cx="99.452787"
   inkscape:cy="81.876922"
   inkscape:window-x="-8"
   inkscape:window-y="-8"
   inkscape:window-maximized="1"
   inkscape:current-layer="Layer_1" />
<title
   id="title2">jquery</title>
<path
   d="M 35.49576,62.667835 C 22.578673,81.58214 23.962647,106.03234 34.111786,125.8693 c 0.461324,0.46132 0.461324,0.92265 0.922649,1.38397 0,0.46132 0.461325,0.46132 0.461325,0.92265 0,0 0,0.46132 0.461324,0.46132 0,0.46133 0.461325,0.46133 0.461325,0.92265 l 0.922649,1.8453 c 0,0.46132 0.461325,0.46132 0.461325,0.92265 0.461324,0.46132 0.922649,0.92265 0.922649,1.8453 0,0.46132 0.461324,0.46132 0.461324,0.92265 0.922649,0.46132 1.383974,1.38397 1.845298,2.30662 0.461325,0.46132 0.922649,1.38397 1.383974,1.8453 0,0 0.461324,0.46132 0.461324,0.92265 l 1.845299,1.38397 c 0,0.46132 0,0.46132 0.461324,0.92265 0.461325,0.92265 1.383974,1.38397 1.845298,2.30662 0,0 0,0 0,0 0.922649,0.92265 1.845298,1.8453 2.767947,2.76795 0.461325,0.46132 0.922649,0.92265 1.383974,1.38397 l 0.461324,0.46133 c 0.92265,0.46132 1.383974,0.92265 2.306623,1.84529 0,0 0,0 0,0 l 0.461325,0.46133 c 0.461324,0.46132 1.383973,0.92265 1.845298,1.38397 l 0.922649,0.46133 c 0.461324,0.46132 0.922649,0.92265 1.383973,1.38397 l 0.92265,0.46133 c 0.461324,0.46132 1.383973,0.92264 1.845298,1.38397 0,0 0.461324,0.46132 0.461324,0.46132 v 0 l 1.845298,0.92265 0.922649,0.46133 c 0.922649,0.46132 1.845298,0.92265 2.767948,1.84529 0.461324,0 0.461324,0.46133 0.922649,0.46133 0.461324,0.46132 1.383973,0.92265 1.845298,0.92265 0.461324,0 0.922649,0.46132 0.922649,0.46132 0.461324,0.46133 0.922649,0.46133 1.383973,0.92265 0,0 0.461325,0 0.461325,0 0,0 0.461324,0 0.461324,0.46133 0.922649,0.46132 1.383974,0.92265 2.306623,0.92265 0,0 0.461325,0 0.461325,0 0.922649,0.46132 1.845298,0.92264 2.767947,0.92264 0,0 0.461324,0 0.461324,0.46133 0.922649,0.46132 1.845298,0.46132 2.767947,0.92265 h 0.461325 c 0.922649,0.46132 1.845298,0.46132 2.767947,0.92265 0,0 0.461325,0 0.461325,0 0.922649,0.46132 1.845298,0.46132 2.767947,0.92265 63.201469,11.53311 81.654449,-37.82861 81.654449,-37.82861 -15.22371,19.83695 -42.90318,25.37284 -68.73735,19.37563 -0.92265,0 -1.845305,-0.46133 -2.767955,-0.92265 -0.92265,-0.46133 -2.30662,-0.92265 -3.6906,-0.92265 h -0.46133 c -0.92264,-0.46133 -1.84529,-0.46133 -2.30662,-0.92265 0,0 -0.46132,0 -0.46132,-0.46133 -0.92265,-0.46132 -1.8453,-0.92265 -2.76795,-0.92265 0,0 -0.461324,0 -0.461324,-0.46132 -0.922649,-0.46132 -1.383974,-0.46132 -2.306623,-0.92265 0,0 -0.461324,0 -0.461324,-0.46132 -0.461325,-0.46133 -0.922649,-0.46133 -1.845298,-0.92265 -0.461325,0 -0.922649,-0.46133 -0.922649,-0.46133 -0.92265,-0.46132 -1.383974,-0.92265 -2.306623,-0.92265 0,0 -0.461325,-0.46132 -0.922649,-0.46132 -0.922649,-0.46133 -1.845298,-0.92265 -2.767947,-1.8453 -0.461325,0 -0.461325,-0.46132 -0.922649,-0.46132 -0.461325,-0.46133 -1.383974,-0.92265 -1.845299,-1.38398 0,0 -0.461324,-0.46132 -0.461324,-0.46132 -0.461325,-0.46133 -1.383974,-0.92265 -1.845298,-1.38398 -0.461325,0 -0.461325,-0.46132 -0.922649,-0.46132 -0.461325,-0.46132 -0.922649,-0.92265 -1.383974,-1.38397 l -0.922649,-0.46133 c -0.461324,0.46133 -0.922649,0 -1.845298,-0.92265 0,0 0,0 -0.461325,0 l -2.306622,-1.84529 -0.461325,-0.46133 c -0.461324,-0.46132 -0.922649,-0.92265 -1.383973,-1.38397 l -0.461325,-0.92265 c -0.461324,-0.46133 -1.383973,-1.38397 -1.845298,-1.8453 v 0 c -0.461324,-0.92265 -1.383974,-1.38397 -1.845298,-2.30662 0,0 -0.461325,-0.46133 -0.461325,-0.46133 l -1.383973,-1.84529 c -0.922649,-0.92265 -1.845298,-1.8453 -2.306623,-2.76795 C 39.647681,99.112472 34.57311,72.35565 45.6449,49.750748 Z M 76.092319,46.982801 c -9.687816,13.378411 -8.765166,31.831392 -1.383974,46.132453 1.383974,2.306622 2.767947,4.613245 4.151921,6.919866 1.383973,1.8453 2.767947,4.61325 5.07457,5.99722 0.461324,0.92265 1.383973,1.38398 2.306622,2.30662 l 0.461325,0.46133 c 0.922649,0.46132 1.383973,1.38397 2.306622,1.8453 v 0 c 0.92265,0.92265 1.8453,1.38397 2.76795,2.30662 0,0 0.46132,0.46132 0.46132,0.46132 0.92265,0.46133 1.8453,1.38398 2.76795,1.8453 v 0 c 0.46133,0.46133 0.92265,0.46133 1.38398,0.92265 0,0 0.46132,0.46133 0.46132,0.46133 0.46133,0.46132 1.38398,0.92265 1.8453,1.38397 0,0 0,0 0.46133,0 0.46132,0.46132 1.383975,0.46132 1.845295,0.92265 0,0 0.46133,0 0.46133,0.46132 0.46132,0 0.92265,0.46133 1.38397,0.46133 v 0 c 0.92265,0.46132 1.8453,0.92265 2.30662,1.38397 0,0 0.46133,0 0.46133,0.46133 0.46132,0.46132 1.38397,0.46132 1.8453,0.92264 0.46132,0 0.46132,0 0.92265,0.46133 0.46132,0.46132 1.38397,0.46132 1.84529,0.46132 l 0.92265,0.46133 c 0.92265,0.46132 1.8453,0.46132 2.76795,0.92265 48.9004,8.30384 59.97219,-29.524774 59.97219,-29.524774 -10.14914,14.762384 -29.9861,21.682254 -50.7457,16.146364 -0.92265,-0.46133 -1.8453,-0.46133 -2.76794,-0.92265 -0.46133,0 -0.46133,0 -0.92265,-0.46133 -0.46133,-0.46132 -1.38398,-0.46132 -1.8453,-0.46132 l -0.92265,-0.46133 c -0.92265,-0.46132 -1.38397,-0.46132 -1.8453,-0.92265 0,0 -0.46133,0 -0.46133,-0.46132 -0.92264,-0.46132 -1.84529,-0.92265 -2.76794,-1.38397 l -1.38398,-0.46133 -0.92265,-0.46132 c -0.46132,-0.46133 -0.92264,-0.46133 -1.84529,-0.92265 0,0 -0.46133,0 -0.46133,0 -0.46132,-0.46133 -1.38397,-0.92265 -1.8453,-1.38398 0,0 -0.46132,-0.46132 -0.46132,-0.46132 l -1.38398,-0.92265 c -0.92265,-0.46133 -1.8453,-1.38397 -2.76795,-1.8453 0,0 -0.46133,-0.461323 -0.46133,-0.461323 C 90.854705,92.192604 83.473511,82.504789 80.244239,71.433001 77.014968,59.899887 77.476292,46.521476 83.934836,35.911012 Z M 110.23033,34.988363 c -5.53589,8.303841 -5.99721,18.452981 -2.30662,27.218147 4.15192,9.687815 12.45577,17.069008 22.14358,20.759604 0.46132,0 0.92265,0.461324 1.38397,0.461324 h 0.46132 c 0.46133,0 0.92265,0.461325 1.8453,0.461325 26.75684,5.07457 34.13803,-13.839736 35.98332,-16.607683 -6.45855,9.22649 -17.06901,11.533113 -30.44742,8.303841 -0.92265,-0.461324 -2.30663,-0.461324 -3.22927,-0.922649 -1.38398,-0.461324 -2.76795,-0.922649 -3.6906,-1.383973 -2.30662,-0.922649 -4.61324,-2.306623 -6.45854,-4.151921 -11.99444,-8.765166 -18.91431,-25.834174 -11.53312,-40.135234 z"
   id="path4"
   style="fill:none;fill-opacity:1;stroke:#0a010e;stroke-width:2.30662;stroke-miterlimit:4;stroke-dasharray:none;stroke-opacity:1" />
<rect
   y="0"
   x="0"
   height="200"
   width="200"
   id="rect831"
   style="opacity:0.997;fill:none;fill-rule:evenodd;stroke:none;stroke-width:1.31246;stroke-linecap:round;paint-order:stroke markers fill" /></svg>
