<?xml version="1.0" encoding="UTF-8" standalone="no"?>
<svg
   xmlns:dc="http://purl.org/dc/elements/1.1/"
   xmlns:cc="http://creativecommons.org/ns#"
   xmlns:rdf="http://www.w3.org/1999/02/22-rdf-syntax-ns#"
   xmlns:svg="http://www.w3.org/2000/svg"
   xmlns="http://www.w3.org/2000/svg"
   xmlns:sodipodi="http://sodipodi.sourceforge.net/DTD/sodipodi-0.dtd"
   xmlns:inkscape="http://www.inkscape.org/namespaces/inkscape"
   inkscape:version="1.0 (4035a4fb49, 2020-05-01)"
   sodipodi:docname="nodejs.svg"
   id="svg4"
   version="1.1"
   viewBox="0 0 200 200"
   height="200"
   width="200">
  <metadata
     id="metadata10">
    <rdf:RDF>
      <cc:Work
         rdf:about="">
        <dc:format>image/svg+xml</dc:format>
        <dc:type
           rdf:resource="http://purl.org/dc/dcmitype/StillImage" />
        <dc:title></dc:title>
      </cc:Work>
    </rdf:RDF>
  </metadata>
  <defs
     id="defs8" />
  <sodipodi:namedview
     inkscape:current-layer="svg4"
     inkscape:window-maximized="1"
     inkscape:window-y="-8"
     inkscape:window-x="-8"
     inkscape:cy="121.56038"
     inkscape:cx="-128.23265"
     inkscape:zoom="1.1249231"
     inkscape:snap-center="true"
     inkscape:snap-object-midpoints="true"
     inkscape:snap-bbox-midpoints="true"
     inkscape:bbox-paths="true"
     inkscape:snap-bbox-edge-midpoints="true"
     inkscape:bbox-nodes="true"
     inkscape:snap-global="true"
     inkscape:snap-bbox="false"
     showgrid="false"
     id="namedview6"
     inkscape:window-height="705"
     inkscape:window-width="1366"
     inkscape:pageshadow="2"
     inkscape:pageopacity="0"
     guidetolerance="10"
     gridtolerance="10"
     objecttolerance="10"
     borderopacity="1"
     bordercolor="#666666"
     pagecolor="#ffffff" />
  <path
     style="fill:none;stroke:#000000;stroke-width:1.55316;stroke-miterlimit:4;stroke-dasharray:none;stroke-opacity:1"
     id="path2"
     d="m 99.87409,26.351737 c -2.22671,0 -4.535882,0.511886 -6.432703,1.462529 L 32.08336,59.258644 c -3.958582,2.04754 -6.432696,5.850116 -6.432696,9.945198 v 62.742508 c 0,4.09507 2.474114,7.89765 6.432696,9.94519 l 16.081741,8.19016 c 7.834694,3.36382 10.473749,3.43695 14.102449,3.43695 11.545866,0 18.225974,-6.21575 18.225974,-17.03846 V 74.542076 c 0,-0.877521 -0.824706,-1.608785 -1.814351,-1.608785 H 71.00942 c -1.072116,0 -1.896821,0.731267 -1.896821,1.608785 v 61.938114 c 0,4.82634 -5.607992,9.57956 -14.597272,5.55761 L 37.608881,133.482 a 2.1442322,1.9012879 0 0 1 -0.907175,-1.53565 V 69.203842 c 0,-0.658136 0.329882,-1.24315 0.907175,-1.535656 L 98.96691,36.296934 c 0.49483,-0.292505 1.31953,-0.292505 1.81435,0 l 61.35802,31.371252 c 0.57729,0.292505 0.90718,0.877518 0.90718,1.535656 v 62.742508 c 0,0.58502 -0.32989,1.17002 -0.90718,1.53565 l -61.35802,31.37125 c -0.49482,0.29251 -1.31952,0.29251 -1.89682,0 l -15.504451,-8.33642 c -0.659763,-0.21936 -1.319527,-0.29251 -1.731879,-0.073 -4.370934,2.1938 -5.19564,2.63255 -9.236692,3.72945 -0.989646,0.29251 -2.556584,0.80439 0.577293,2.34005 l 20.452676,10.74959 c 1.979291,1.02377 4.123523,1.53566 6.432703,1.53566 2.30917,0 4.45339,-0.51188 6.43268,-1.53566 l 61.35803,-31.37125 c 3.95859,-2.04754 6.4327,-5.85012 6.4327,-9.9452 V 69.203842 c 0,-4.095082 -2.47411,-7.897658 -6.4327,-9.945198 L 106.30677,27.814266 c -1.89682,-0.950644 -4.12351,-1.462529 -6.43268,-1.462529 m 16.49408,44.972772 c -17.48373,0 -27.957481,6.508257 -27.957481,17.477227 0,11.773364 10.391281,15.210304 27.215251,16.672824 20.04032,1.75505 21.60726,4.38759 21.60726,7.89767 0,6.06949 -5.52552,8.62891 -18.39091,8.62891 -16.32915,0 -19.79291,-3.58319 -21.02997,-10.74958 a 1.8638325,1.6526579 0 0 0 -1.81435,-1.31628 h -7.917164 c -0.989646,0 -1.73188,0.65817 -1.73188,1.60878 0,9.06768 5.607992,20.03666 32.493364,20.03666 19.38055,0 30.51407,-6.80077 30.51407,-18.64725 0,-11.77336 -8.90681,-14.844674 -27.79255,-17.111594 -19.05067,-2.1938 -20.94749,-3.36382 -20.94749,-7.31265 0,-3.29069 1.64941,-7.67828 15.75185,-7.67828 12.37058,0 17.23633,2.41317 19.13315,9.9452 0.16494,0.73125 0.90718,1.24316 1.73188,1.24316 h 7.99963 c 0.41235,0 0.90718,-0.14622 1.23707,-0.51188 0.32988,-0.29252 0.57729,-0.73125 0.41235,-1.17003 -1.15459,-13.01652 -10.8861,-19.012887 -30.51408,-19.012887 z"
     fill="#0a010e" />
</svg>
