<?xml version="1.0" encoding="UTF-8" standalone="no"?>
<svg
   xmlns:dc="http://purl.org/dc/elements/1.1/"
   xmlns:cc="http://creativecommons.org/ns#"
   xmlns:rdf="http://www.w3.org/1999/02/22-rdf-syntax-ns#"
   xmlns:svg="http://www.w3.org/2000/svg"
   xmlns="http://www.w3.org/2000/svg"
   xmlns:sodipodi="http://sodipodi.sourceforge.net/DTD/sodipodi-0.dtd"
   xmlns:inkscape="http://www.inkscape.org/namespaces/inkscape"
   inkscape:version="1.0 (4035a4fb49, 2020-05-01)"
   sodipodi:docname="icon-css.svg"
   id="svg4"
   version="1.1"
   viewBox="0 0 48 48"
   height="30"
   width="30">
  <metadata
     id="metadata10">
    <rdf:RDF>
      <cc:Work
         rdf:about="">
        <dc:format>image/svg+xml</dc:format>
        <dc:type
           rdf:resource="http://purl.org/dc/dcmitype/StillImage" />
      </cc:Work>
    </rdf:RDF>
  </metadata>
  <defs
     id="defs8" />
  <sodipodi:namedview
     inkscape:current-layer="svg4"
     inkscape:window-maximized="1"
     inkscape:window-y="-8"
     inkscape:window-x="-8"
     inkscape:cy="15"
     inkscape:cx="15"
     inkscape:zoom="14.399015"
     showgrid="false"
     id="namedview6"
     inkscape:window-height="705"
     inkscape:window-width="1366"
     inkscape:pageshadow="2"
     inkscape:pageopacity="0"
     guidetolerance="10"
     gridtolerance="10"
     objecttolerance="10"
     borderopacity="1"
     bordercolor="#666666"
     pagecolor="#ffffff" />
  <path
     style="stroke-width:2.4;stroke-miterlimit:4;stroke-dasharray:none"
     id="path2"
     d="M21.623 12.452a3.876 3.876 0 0 0 2.623.656h.656a2.131 2.131 0 0 0 0-4.263h-1.476a2.17 2.17 0 0 1-2.131-2.132a2.17 2.17 0 0 1 2.131-2.131h.656c1.476 0 2.131.164 2.623.656m4.673 7.214a3.876 3.876 0 0 0 2.623.656h.656a2.131 2.131 0 0 0 0-4.263h-1.475a2.17 2.17 0 0 1-2.132-2.132a2.17 2.17 0 0 1 2.131-2.131h.656c1.476 0 2.132.164 2.624.656M17.278 11.55a3.173 3.173 0 0 1-2.787 1.64a3.289 3.289 0 0 1-3.28-3.28V7.78a3.289 3.289 0 0 1 3.28-3.28a3.173 3.173 0 0 1 2.787 1.64m-3.886 12.39h21.055l-2.171 22.943l-8.288 2.027l-8.287-2.027l-.575-4.72m-.724-7.729h18.763"
     stroke-linejoin="round"
     stroke-linecap="round"
     stroke="#2b2b2b"
     fill="none" />
</svg>
