<?xml version="1.0" encoding="UTF-8" standalone="no"?>
<svg
   xmlns:dc="http://purl.org/dc/elements/1.1/"
   xmlns:cc="http://creativecommons.org/ns#"
   xmlns:rdf="http://www.w3.org/1999/02/22-rdf-syntax-ns#"
   xmlns:svg="http://www.w3.org/2000/svg"
   xmlns="http://www.w3.org/2000/svg"
   xmlns:sodipodi="http://sodipodi.sourceforge.net/DTD/sodipodi-0.dtd"
   xmlns:inkscape="http://www.inkscape.org/namespaces/inkscape"
   inkscape:version="1.0 (4035a4fb49, 2020-05-01)"
   sodipodi:docname="icon-mongodb.svg"
   id="svg4"
   version="1.1"
   viewBox="0 0 200 200"
   height="200"
   width="200">
  <metadata
     id="metadata10">
    <rdf:RDF>
      <cc:Work
         rdf:about="">
        <dc:format>image/svg+xml</dc:format>
        <dc:type
           rdf:resource="http://purl.org/dc/dcmitype/StillImage" />
        <dc:title></dc:title>
      </cc:Work>
    </rdf:RDF>
  </metadata>
  <defs
     id="defs8" />
  <sodipodi:namedview
     inkscape:current-layer="svg4"
     inkscape:window-maximized="1"
     inkscape:window-y="-8"
     inkscape:window-x="-8"
     inkscape:cy="84.94226"
     inkscape:cx="-66.902502"
     inkscape:zoom="1.2727052"
     showgrid="false"
     id="namedview6"
     inkscape:window-height="705"
     inkscape:window-width="1366"
     inkscape:pageshadow="2"
     inkscape:pageopacity="0"
     guidetolerance="10"
     gridtolerance="10"
     objecttolerance="10"
     borderopacity="1"
     bordercolor="#666666"
     pagecolor="#ffffff" />
  <path
     style="fill:#0a010e;fill-opacity:1;stroke:none;stroke-width:0.993366;stroke-miterlimit:4;stroke-dasharray:none;stroke-opacity:1"
     id="path2"
     d="m 101.22492,32.179945 3.66552,-3.357578 a 4.9668314,4.9668314 0 0 0 -7.331045,0 z m 0,129.137625 -3.903933,3.0695 a 4.9668314,4.9668314 0 0 0 7.807853,0 z m -28.579152,-36.37708 -3.90393,3.07943 z m 2.443681,-64.240999 -3.665521,-3.367512 3.665521,3.347645 z m 52.270941,0 3.66552,-3.357579 -3.66552,3.347645 z m 2.44367,64.240999 3.90394,3.07943 z m -23.61231,51.27757 V 32.179945 H 96.258085 V 176.21806 Z m -1.06291,-17.97 -28.579142,-36.36714 -7.80786,6.139 28.579149,36.37708 7.807853,-6.13901 z M 78.745037,64.047135 104.90037,35.537523 97.549462,28.822367 71.423928,57.331979 l 7.311176,6.715156 z m 18.814358,-28.509612 26.145395,28.509612 7.32112,-6.705223 -26.13547,-28.509611 -7.340978,6.695288 z m 28.340745,86.333467 -28.579153,36.37707 7.807853,6.13901 28.57916,-36.37708 z m -2.19535,-57.813921 a 44.701483,44.701483 0 0 1 2.18541,57.813921 l 7.8178,6.139 a 54.635146,54.635146 0 0 0 -2.68209,-70.668078 l -7.32112,6.705223 z M 76.549698,121.87099 a 44.701483,44.701483 0 0 1 2.195339,-57.813921 l -7.321109,-6.72509 a 54.635146,54.635146 0 0 0 -2.68209,70.668081 l 7.80786,-6.139 z"
     fill="currentColor" />
</svg>
