<?xml version="1.0" encoding="UTF-8" standalone="no"?>
<svg
   xmlns:dc="http://purl.org/dc/elements/1.1/"
   xmlns:cc="http://creativecommons.org/ns#"
   xmlns:rdf="http://www.w3.org/1999/02/22-rdf-syntax-ns#"
   xmlns:svg="http://www.w3.org/2000/svg"
   xmlns="http://www.w3.org/2000/svg"
   xmlns:sodipodi="http://sodipodi.sourceforge.net/DTD/sodipodi-0.dtd"
   xmlns:inkscape="http://www.inkscape.org/namespaces/inkscape"
   inkscape:version="1.0 (4035a4fb49, 2020-05-01)"
   sodipodi:docname="icon-jquery.svg"
   id="svg4"
   version="1.1"
   viewBox="0 0 40 40"
   height="50"
   width="50">
  <metadata
     id="metadata10">
    <rdf:RDF>
      <cc:Work
         rdf:about="">
        <dc:format>image/svg+xml</dc:format>
        <dc:type
           rdf:resource="http://purl.org/dc/dcmitype/StillImage" />
        <dc:title></dc:title>
      </cc:Work>
    </rdf:RDF>
  </metadata>
  <defs
     id="defs8" />
  <sodipodi:namedview
     inkscape:current-layer="svg4"
     inkscape:window-maximized="1"
     inkscape:window-y="-8"
     inkscape:window-x="-8"
     inkscape:cy="21.084759"
     inkscape:cx="-21.205749"
     inkscape:zoom="5.0908207"
     inkscape:snap-object-midpoints="true"
     showgrid="false"
     id="namedview6"
     inkscape:window-height="705"
     inkscape:window-width="1366"
     inkscape:pageshadow="2"
     inkscape:pageopacity="0"
     guidetolerance="10"
     gridtolerance="10"
     objecttolerance="10"
     borderopacity="1"
     bordercolor="#666666"
     pagecolor="#ffffff">
    <sodipodi:guide
       id="guide835"
       orientation="0,50"
       position="0,40" />
    <sodipodi:guide
       id="guide837"
       orientation="50,0"
       position="40,40" />
    <sodipodi:guide
       id="guide839"
       orientation="0,-50"
       position="40,0" />
    <sodipodi:guide
       id="guide841"
       orientation="-50,0"
       position="0,0" />
  </sodipodi:namedview>
  <path
     style="stroke-width:1.10302"
     id="path2"
     d="m 30.700304,18.108362 a 5.4369136,5.6056 0 0 1 -7.647526,-0.6944 c -1.933609,-2.3744 -1.629445,-5.924801 0.66264,-7.8847996 l 0.554011,-0.4256 a 5.4575531,5.62688 0 0 0 -0.173808,7.4255996 c 1.770663,2.1728 4.834019,2.5984 7.104379,1.0864 l -0.499696,0.4928 m -1.933608,4.5808 a 8.1254973,8.3776 0 0 1 -11.47129,-1.0304 c -2.900412,-3.5504 -2.444167,-8.848 0.999393,-11.8495996 l 0.999393,-0.7168 A 8.1407054,8.39328 0 0 0 19.163836,20.045962 c 2.628837,3.2032 7.104379,3.9088 10.48276,1.7696 l -0.8799,0.8736 m -1.227514,5.4656 c -4.823157,4.1776 -12.025302,3.528 -16.077188,-1.456 -4.0410223,-4.9728 -3.4109704,-12.4096 1.412185,-16.5648 l 1.20579,-0.8847996 C 10.267068,13.505162 10.028083,20.146762 13.75408,24.727562 c 3.725996,4.5696 10.113419,5.488 14.860535,2.3632 z"
     fill="#2b2b2b" />
</svg>
