<?xml version="1.0" encoding="UTF-8" standalone="no"?>
<svg
   xmlns:dc="http://purl.org/dc/elements/1.1/"
   xmlns:cc="http://creativecommons.org/ns#"
   xmlns:rdf="http://www.w3.org/1999/02/22-rdf-syntax-ns#"
   xmlns:svg="http://www.w3.org/2000/svg"
   xmlns="http://www.w3.org/2000/svg"
   xmlns:sodipodi="http://sodipodi.sourceforge.net/DTD/sodipodi-0.dtd"
   xmlns:inkscape="http://www.inkscape.org/namespaces/inkscape"
   width="50"
   height="50"
   viewBox="0 0 80 80"
   version="1.1"
   id="svg4"
   sodipodi:docname="icon-css.svg"
   inkscape:version="1.0 (4035a4fb49, 2020-05-01)">
  <metadata
     id="metadata10">
    <rdf:RDF>
      <cc:Work
         rdf:about="">
        <dc:format>image/svg+xml</dc:format>
        <dc:type
           rdf:resource="http://purl.org/dc/dcmitype/StillImage" />
        <dc:title></dc:title>
      </cc:Work>
    </rdf:RDF>
  </metadata>
  <defs
     id="defs8" />
  <sodipodi:namedview
     inkscape:snap-center="true"
     inkscape:snap-object-midpoints="true"
     inkscape:document-rotation="0"
     pagecolor="#ffffff"
     bordercolor="#666666"
     borderopacity="1"
     objecttolerance="10"
     gridtolerance="10"
     guidetolerance="10"
     inkscape:pageopacity="0"
     inkscape:pageshadow="2"
     inkscape:window-width="1366"
     inkscape:window-height="705"
     id="namedview6"
     showgrid="false"
     inkscape:zoom="5.6568542"
     inkscape:cx="20.969291"
     inkscape:cy="16.855364"
     inkscape:window-x="-8"
     inkscape:window-y="-8"
     inkscape:window-maximized="1"
     inkscape:current-layer="svg4">
    <sodipodi:guide
       id="guide830"
       orientation="0,50"
       position="0,80" />
    <sodipodi:guide
       id="guide832"
       orientation="50,0"
       position="80,80" />
    <sodipodi:guide
       id="guide834"
       orientation="0,-50"
       position="80,0" />
    <sodipodi:guide
       id="guide836"
       orientation="-50,0"
       position="0,0" />
  </sodipodi:namedview>
  <path
     fill="none"
     stroke="#2b2b2b"
     stroke-linecap="round"
     stroke-linejoin="round"
     d="m 36.601913,23.4896 a 5.5415961,5.5415961 0 0 0 3.750156,0.937897 h 0.937897 a 3.047449,3.047449 0 0 0 0,-6.094898 h -2.110267 a 3.1024932,3.1024932 0 0 1 -3.046734,-3.048164 3.1024932,3.1024932 0 0 1 3.046734,-3.046734 h 0.937896 c 2.110267,0 3.046734,0.234474 3.750157,0.937896 M 50.548835,23.4896 a 5.5415961,5.5415961 0 0 0 3.750156,0.937897 h 0.937897 a 3.047449,3.047449 0 0 0 0,-6.094898 H 53.12805 a 3.1024932,3.1024932 0 0 1 -3.048163,-3.048164 3.1024932,3.1024932 0 0 1 3.046734,-3.046734 h 0.937896 c 2.110267,0 3.048164,0.234474 3.751586,0.937896 m -27.426325,9.024395 a 4.5365027,4.5365027 0 0 1 -3.984631,2.344742 4.7023503,4.7023503 0 0 1 -4.689483,-4.689483 v -3.045304 a 4.7023503,4.7023503 0 0 1 4.689483,-4.689483 4.5365027,4.5365027 0 0 1 3.984631,2.344741 M 24.833885,32.17944 H 54.936647 L 51.832724,64.981515 39.983201,67.879558 28.135109,64.981515 27.31302,58.233234 M 26.277902,47.182926 h 26.825843"
     id="path2"
     style="stroke-width:3.2;stroke-miterlimit:4;stroke-dasharray:none" />
</svg>
