<?xml version="1.0" encoding="UTF-8" standalone="no"?>
<svg
   xmlns:osb="http://www.openswatchbook.org/uri/2009/osb"
   xmlns:dc="http://purl.org/dc/elements/1.1/"
   xmlns:cc="http://creativecommons.org/ns#"
   xmlns:rdf="http://www.w3.org/1999/02/22-rdf-syntax-ns#"
   xmlns:svg="http://www.w3.org/2000/svg"
   xmlns="http://www.w3.org/2000/svg"
   xmlns:sodipodi="http://sodipodi.sourceforge.net/DTD/sodipodi-0.dtd"
   xmlns:inkscape="http://www.inkscape.org/namespaces/inkscape"
   height="200"
   width="200"
   inkscape:version="1.0 (4035a4fb49, 2020-05-01)"
   sodipodi:docname="icon-javascript.svg"
   id="svg4"
   version="1.1"
   viewBox="0 0 200.00001 199.99999">
  <metadata
     id="metadata10">
    <rdf:RDF>
      <cc:Work
         rdf:about="">
        <dc:format>image/svg+xml</dc:format>
        <dc:type
           rdf:resource="http://purl.org/dc/dcmitype/StillImage" />
      </cc:Work>
    </rdf:RDF>
  </metadata>
  <defs
     id="defs8">
    <linearGradient
       osb:paint="solid"
       id="linearGradient849">
      <stop
         id="stop847"
         offset="0"
         style="stop-color:#000000;stop-opacity:1;" />
    </linearGradient>
  </defs>
  <sodipodi:namedview
     showguides="false"
     inkscape:snap-bbox-midpoints="true"
     inkscape:snap-bbox="true"
     inkscape:current-layer="svg4"
     inkscape:window-maximized="1"
     inkscape:window-y="-8"
     inkscape:window-x="-8"
     inkscape:cy="224.86203"
     inkscape:cx="117.30688"
     inkscape:zoom="0.60875706"
     showgrid="false"
     id="namedview6"
     inkscape:window-height="705"
     inkscape:window-width="1366"
     inkscape:pageshadow="2"
     inkscape:pageopacity="0"
     guidetolerance="10"
     gridtolerance="10"
     objecttolerance="10"
     borderopacity="1"
     bordercolor="#666666"
     pagecolor="#ffffff" />
  <path
     style="fill:none;fill-opacity:1;stroke:#0a010e;stroke-width:2.30592;stroke-miterlimit:4;stroke-dasharray:none;stroke-opacity:1"
     id="path2"
     d="M 84.245594,44.658835 H 57.892223 v 70.000475 c 0,17.32074 -5.940049,22.15692 -16.277158,22.15692 -4.844077,0 -9.206548,-0.83045 -12.600202,-1.99727 l -2.74668,20.49206 c 4.842432,1.6675 12.273751,2.66695 18.087303,2.66695 23.733842,0 39.890108,-11.15769 39.890108,-43.14703 z m 57.471086,-2.635666 c -25.51104,0 -41.65908,14.493691 -41.65908,33.651266 0,16.498204 12.43582,26.827735 30.51753,33.490205 13.07785,4.66386 18.24708,8.831 18.24708,15.66014 0,7.49622 -5.9753,12.32844 -17.27727,12.32844 -10.49622,0 -20.02494,-3.50501 -26.48316,-7.00176 v -0.008 l -5.00418,20.82574 c 6.14001,3.50435 17.60439,7.00176 30.03196,7.00176 29.87385,-6.6e-4 43.75748,-15.99385 43.75748,-34.81873 0,-15.9932 -8.88044,-26.320421 -28.09205,-33.654231 -14.21071,-5.663 -20.18338,-8.82672 -20.18338,-15.990562 0,-5.665974 5.1679,-10.827608 15.82618,-10.827608 10.49063,0 17.70422,3.527068 21.90789,5.695949 l 6.30012,-21.082741 c -6.58836,-2.892612 -15.46185,-5.271004 -27.88912,-5.271004 z" />
  <rect
     y="0"
     x="0"
     height="200"
     width="200"
     id="rect2809"
     style="opacity:0.997;fill:none;fill-opacity:1;fill-rule:evenodd;stroke:none;stroke-width:1.03917;stroke-linecap:round;stroke-miterlimit:4;stroke-dasharray:none;stroke-opacity:1;paint-order:stroke markers fill" />
</svg>
