<?xml version="1.0" encoding="UTF-8" standalone="no"?>
<svg
   xmlns:dc="http://purl.org/dc/elements/1.1/"
   xmlns:cc="http://creativecommons.org/ns#"
   xmlns:rdf="http://www.w3.org/1999/02/22-rdf-syntax-ns#"
   xmlns:svg="http://www.w3.org/2000/svg"
   xmlns="http://www.w3.org/2000/svg"
   xmlns:sodipodi="http://sodipodi.sourceforge.net/DTD/sodipodi-0.dtd"
   xmlns:inkscape="http://www.inkscape.org/namespaces/inkscape"
   width="50"
   height="50"
   viewBox="0 0 16 16"
   version="1.1"
   id="svg8"
   sodipodi:docname="icon-bootstrap.svg"
   inkscape:version="1.0 (4035a4fb49, 2020-05-01)">
  <metadata
     id="metadata14">
    <rdf:RDF>
      <cc:Work
         rdf:about="">
        <dc:format>image/svg+xml</dc:format>
        <dc:type
           rdf:resource="http://purl.org/dc/dcmitype/StillImage" />
        <dc:title></dc:title>
      </cc:Work>
    </rdf:RDF>
  </metadata>
  <defs
     id="defs12" />
  <sodipodi:namedview
     inkscape:snap-object-midpoints="true"
     inkscape:guide-bbox="true"
     showguides="true"
     inkscape:snap-center="true"
     inkscape:snap-page="false"
     inkscape:document-rotation="0"
     pagecolor="#ffffff"
     bordercolor="#666666"
     borderopacity="1"
     objecttolerance="10"
     gridtolerance="10"
     guidetolerance="10"
     inkscape:pageopacity="0"
     inkscape:pageshadow="2"
     inkscape:window-width="1366"
     inkscape:window-height="705"
     id="namedview10"
     showgrid="false"
     inkscape:zoom="8.2201975"
     inkscape:cx="9.18125"
     inkscape:cy="26.04297"
     inkscape:window-x="-8"
     inkscape:window-y="-8"
     inkscape:window-maximized="1"
     inkscape:current-layer="g6" />
  <g
     fill="#2b2b2b"
     id="g6">
    <path
       style="fill:none;stroke:#2b2b2b;stroke-width:0.576;stroke-miterlimit:4;stroke-dasharray:none;stroke-opacity:1"
       d="M 4.2608155,13.130485 H 8.420624 c 2.159509,0 3.45713,-1.086937 3.45713,-2.868173 0,-1.3191682 -0.910968,-2.2935809 -2.2792163,-2.4348349 V 7.7077704 C 10.594498,7.540181 11.372592,6.5944979 11.372592,5.5338964 c 0,-1.5561873 -1.143199,-2.5258118 -3.0429451,-2.5258118 H 4.2608155 Z M 5.8325648,7.2947822 V 4.3416175 h 2.1307796 c 1.1647463,0 1.8458773,0.5470597 1.8458773,1.4807721 0,0.9600479 -0.723028,1.4723926 -2.1116263,1.4723926 z m 0,4.5033668 V 8.5361409 h 2.1810564 c 1.4795745,0 2.2588658,0.5542425 2.2588658,1.6136471 0,1.072572 -0.7505613,1.648361 -2.1678887,1.648361 z"
       id="path2" />
  </g>
</svg>
