<?xml version="1.0" encoding="UTF-8" standalone="no"?>
<svg
   xmlns:dc="http://purl.org/dc/elements/1.1/"
   xmlns:cc="http://creativecommons.org/ns#"
   xmlns:rdf="http://www.w3.org/1999/02/22-rdf-syntax-ns#"
   xmlns:svg="http://www.w3.org/2000/svg"
   xmlns="http://www.w3.org/2000/svg"
   xmlns:sodipodi="http://sodipodi.sourceforge.net/DTD/sodipodi-0.dtd"
   xmlns:inkscape="http://www.inkscape.org/namespaces/inkscape"
   width="50"
   height="50"
   viewBox="0 0 40 40"
   version="1.1"
   id="svg4"
   sodipodi:docname="icon-vuejs.svg"
   inkscape:version="1.0 (4035a4fb49, 2020-05-01)">
  <metadata
     id="metadata10">
    <rdf:RDF>
      <cc:Work
         rdf:about="">
        <dc:format>image/svg+xml</dc:format>
        <dc:type
           rdf:resource="http://purl.org/dc/dcmitype/StillImage" />
        <dc:title></dc:title>
      </cc:Work>
    </rdf:RDF>
  </metadata>
  <defs
     id="defs8" />
  <sodipodi:namedview
     inkscape:snap-center="true"
     inkscape:document-rotation="0"
     pagecolor="#ffffff"
     bordercolor="#666666"
     borderopacity="1"
     objecttolerance="10"
     gridtolerance="10"
     guidetolerance="10"
     inkscape:pageopacity="0"
     inkscape:pageshadow="2"
     inkscape:window-width="1366"
     inkscape:window-height="705"
     id="namedview6"
     showgrid="false"
     inkscape:zoom="6.8501643"
     inkscape:cx="-2.9657307"
     inkscape:cy="24.441576"
     inkscape:window-x="-8"
     inkscape:window-y="-8"
     inkscape:window-maximized="1"
     inkscape:current-layer="svg4">
    <sodipodi:guide
       id="guide830"
       orientation="0,50"
       position="0,40" />
    <sodipodi:guide
       id="guide832"
       orientation="50,0"
       position="40,40" />
    <sodipodi:guide
       id="guide834"
       orientation="0,-50"
       position="40,0" />
    <sodipodi:guide
       id="guide836"
       orientation="-50,0"
       position="0,0" />
  </sodipodi:namedview>
  <path
     fill="#2b2b2b"
     d="m 29.995122,11.416314 a 0.45615447,0.46403023 0 0 0 -0.396736,-0.23341 l -4.561544,-0.0028 -0.0064,-0.0019 -3.656502,-0.02418 h -0.0027 a 0.45524034,0.46310031 0 0 0 -0.393172,0.227823 l -0.979951,1.678506 -0.978127,-1.655258 a 0.45524034,0.46310031 0 0 0 -0.38668,-0.226901 l -3.656549,-0.02511 h -0.0046 a 0.43878586,0.44636173 0 0 0 -0.09232,0.02511 h -4.478336 a 0.45706861,0.46496015 0 0 0 -0.394907,0.6993 l 9.598441,16.738565 a 0.45706861,0.46496015 0 0 0 0.789814,0 l 9.598441,-16.733915 a 0.45706861,0.46496015 0 0 0 0.0018,-0.46589 z m -11.625997,0.690001 1.238656,2.10069 a 0.45706861,0.46496015 0 0 0 0.392164,0.22597 h 9.15e-4 a 0.45706861,0.46496015 0 0 0 0.392165,-0.22783 l 1.236827,-2.120218 2.587009,0.0186 -2.747897,4.572418 -1.469019,2.443831 -4.210516,-7.031128 z m 1.63082,15.352983 -8.803141,-15.351123 h 3.519428 l 4.893377,8.146102 a 0.45066965,0.45845071 0 0 0 0.134378,0.132048 c 0.0128,0.0093 0.0192,0.02417 0.03199,0.03161 a 0.45706861,0.46496015 0 0 0 0.614301,-0.162736 l 4.893376,-8.145172 3.519428,0.0019 z"
     id="path2"
     style="fill:#2b2b2b;fill-opacity:1;stroke:none;stroke-width:0.9216;stroke-miterlimit:4;stroke-dasharray:none;stroke-opacity:1" />
</svg>
