<?xml version="1.0" encoding="UTF-8" standalone="no"?>
<svg
   xmlns:dc="http://purl.org/dc/elements/1.1/"
   xmlns:cc="http://creativecommons.org/ns#"
   xmlns:rdf="http://www.w3.org/1999/02/22-rdf-syntax-ns#"
   xmlns:svg="http://www.w3.org/2000/svg"
   xmlns="http://www.w3.org/2000/svg"
   xmlns:sodipodi="http://sodipodi.sourceforge.net/DTD/sodipodi-0.dtd"
   xmlns:inkscape="http://www.inkscape.org/namespaces/inkscape"
   width="200"
   height="200"
   viewBox="0 0 200 200"
   fill="none"
   stroke="currentColor"
   stroke-width="2"
   stroke-linecap="round"
   stroke-linejoin="round"
   class="feather feather-figma"
   version="1.1"
   id="svg12"
   sodipodi:docname="icon-figma.svg"
   inkscape:version="1.0 (4035a4fb49, 2020-05-01)">
  <metadata
     id="metadata18">
    <rdf:RDF>
      <cc:Work
         rdf:about="">
        <dc:format>image/svg+xml</dc:format>
        <dc:type
           rdf:resource="http://purl.org/dc/dcmitype/StillImage" />
      </cc:Work>
    </rdf:RDF>
  </metadata>
  <defs
     id="defs16" />
  <sodipodi:namedview
     inkscape:snap-object-midpoints="true"
     inkscape:snap-center="true"
     inkscape:document-rotation="0"
     pagecolor="#ffffff"
     bordercolor="#666666"
     borderopacity="1"
     objecttolerance="10"
     gridtolerance="10"
     guidetolerance="10"
     inkscape:pageopacity="0"
     inkscape:pageshadow="2"
     inkscape:window-width="1366"
     inkscape:window-height="705"
     id="namedview14"
     showgrid="false"
     inkscape:zoom="1.5136868"
     inkscape:cx="68.474131"
     inkscape:cy="92.5985"
     inkscape:window-x="-8"
     inkscape:window-y="-8"
     inkscape:window-maximized="1"
     inkscape:current-layer="svg12" />
  <g
     transform="translate(-12.293812,-14.998781)"
     id="g841">
    <path
       style="stroke:#0a010e;stroke-width:3.48828;stroke-miterlimit:4;stroke-dasharray:none;stroke-opacity:1"
       id="path2"
       d="M 63.457919,66.160421 A 24.417946,24.417946 0 0 1 87.875864,41.742475 H 112.29381 V 90.578367 H 87.875864 A 24.417946,24.417946 0 0 1 63.457919,66.160421 Z" />
    <path
       style="stroke:#0a010e;stroke-width:3.48828;stroke-miterlimit:4;stroke-dasharray:none;stroke-opacity:1"
       id="path4"
       d="m 112.29381,41.742475 h 24.41795 a 24.417946,24.417946 0 1 1 0,48.835892 h -24.41795 z" />
    <path
       style="fill:none;fill-opacity:1;stroke:#0a010e;stroke-width:3.48828;stroke-miterlimit:4;stroke-dasharray:none;stroke-opacity:1"
       id="path6"
       d="m 112.29381,114.99631 a 24.417946,24.417946 0 1 1 48.83589,0 24.417946,24.417946 0 1 1 -48.83589,0 z" />
    <path
       style="stroke:#0a010e;stroke-width:3.48828;stroke-miterlimit:4;stroke-dasharray:none;stroke-opacity:1"
       id="path8"
       d="m 63.457919,163.8322 a 24.417946,24.417946 0 0 1 24.417945,-24.41795 h 24.417946 v 24.41795 a 24.417946,24.417946 0 1 1 -48.835891,0 z" />
    <path
       style="stroke:#0a010e;stroke-width:3.48828;stroke-miterlimit:4;stroke-dasharray:none;stroke-opacity:1"
       id="path10"
       d="M 63.457919,114.99631 A 24.417946,24.417946 0 0 1 87.875864,90.578367 H 112.29381 V 139.41425 H 87.875864 A 24.417946,24.417946 0 0 1 63.457919,114.99631 Z" />
  </g>
  <rect
     y="0"
     x="0"
     height="200"
     width="200"
     id="rect834"
     style="opacity:0.997;fill:none;fill-opacity:1;fill-rule:evenodd;stroke:none;stroke-width:1.68731;stroke-linecap:round;paint-order:stroke markers fill" />
</svg>
