<?xml version="1.0" encoding="UTF-8" standalone="no"?>
<svg
   xmlns:dc="http://purl.org/dc/elements/1.1/"
   xmlns:cc="http://creativecommons.org/ns#"
   xmlns:rdf="http://www.w3.org/1999/02/22-rdf-syntax-ns#"
   xmlns:svg="http://www.w3.org/2000/svg"
   xmlns="http://www.w3.org/2000/svg"
   xmlns:sodipodi="http://sodipodi.sourceforge.net/DTD/sodipodi-0.dtd"
   xmlns:inkscape="http://www.inkscape.org/namespaces/inkscape"
   inkscape:version="1.0 (4035a4fb49, 2020-05-01)"
   sodipodi:docname="icon-javascript.svg"
   id="svg4"
   version="1.1"
   viewBox="0 0 24 24"
   height="70"
   width="70">
  <metadata
     id="metadata10">
    <rdf:RDF>
      <cc:Work
         rdf:about="">
        <dc:format>image/svg+xml</dc:format>
        <dc:type
           rdf:resource="http://purl.org/dc/dcmitype/StillImage" />
      </cc:Work>
    </rdf:RDF>
  </metadata>
  <defs
     id="defs8" />
  <sodipodi:namedview
     inkscape:current-layer="svg4"
     inkscape:window-maximized="1"
     inkscape:window-y="-8"
     inkscape:window-x="-8"
     inkscape:cy="35"
     inkscape:cx="35"
     inkscape:zoom="6.1710066"
     showgrid="false"
     id="namedview6"
     inkscape:window-height="705"
     inkscape:window-width="1366"
     inkscape:pageshadow="2"
     inkscape:pageopacity="0"
     guidetolerance="10"
     gridtolerance="10"
     objecttolerance="10"
     borderopacity="1"
     bordercolor="#666666"
     pagecolor="#ffffff" />
  <path
     style="stroke-width:1.19272"
     id="path2"
     d="m 6.7726778,15.611152 q -0.7386441,0 -1.2562858,-0.527228 -0.5176418,-0.527228 -0.51646,-1.278348 v -1.203717 h 1.7727458 v 1.203717 H 8.5454236 V 8.3888478 h 1.7727454 v 5.4167282 q 0,0.752323 -0.5176414,1.279552 -0.5176418,0.527228 -1.255104,0.526024 z m 6.5000682,0 q -0.502278,0 -0.842645,-0.34667 -0.340368,-0.346671 -0.339186,-0.857047 v -1.203718 h 1.772746 v 0.601859 h 2.363661 v -1.203717 h -2.954576 q -0.502278,0 -0.842645,-0.346671 -0.340368,-0.346671 -0.339186,-0.857047 V 9.5925652 q 0,-0.5115799 0.340367,-0.8582505 0.340368,-0.3466706 0.841464,-0.3454669 h 3.545491 q 0.502278,0 0.842645,0.3466706 0.340368,0.3466706 0.339186,0.8570468 v 1.2037178 h -1.772746 v -0.601859 h -2.363661 v 1.203717 h 2.954576 q 0.502278,0 0.842645,0.346671 0.340368,0.346671 0.339186,0.857047 v 1.805576 q 0,0.51158 -0.340367,0.85825 -0.340368,0.346671 -0.841464,0.345467 z"
     fill="#2b2b2b" />
</svg>
