<?xml version="1.0" encoding="UTF-8" standalone="no"?>
<svg
   xmlns:dc="http://purl.org/dc/elements/1.1/"
   xmlns:cc="http://creativecommons.org/ns#"
   xmlns:rdf="http://www.w3.org/1999/02/22-rdf-syntax-ns#"
   xmlns:svg="http://www.w3.org/2000/svg"
   xmlns="http://www.w3.org/2000/svg"
   xmlns:sodipodi="http://sodipodi.sourceforge.net/DTD/sodipodi-0.dtd"
   xmlns:inkscape="http://www.inkscape.org/namespaces/inkscape"
   width="50"
   height="50"
   viewBox="0 0 40 40"
   version="1.1"
   id="svg4"
   sodipodi:docname="icon-gsap.svg"
   inkscape:version="1.0 (4035a4fb49, 2020-05-01)">
  <metadata
     id="metadata10">
    <rdf:RDF>
      <cc:Work
         rdf:about="">
        <dc:format>image/svg+xml</dc:format>
        <dc:type
           rdf:resource="http://purl.org/dc/dcmitype/StillImage" />
        <dc:title></dc:title>
      </cc:Work>
    </rdf:RDF>
  </metadata>
  <defs
     id="defs8" />
  <sodipodi:namedview
     inkscape:guide-bbox="true"
     showguides="true"
     inkscape:snap-center="true"
     inkscape:snap-object-midpoints="true"
     inkscape:document-rotation="0"
     pagecolor="#ffffff"
     bordercolor="#666666"
     borderopacity="1"
     objecttolerance="10"
     gridtolerance="10"
     guidetolerance="10"
     inkscape:pageopacity="0"
     inkscape:pageshadow="2"
     inkscape:window-width="1366"
     inkscape:window-height="705"
     id="namedview6"
     showgrid="false"
     inkscape:zoom="6.8501643"
     inkscape:cx="-3.0512449"
     inkscape:cy="24.854497"
     inkscape:window-x="-8"
     inkscape:window-y="-8"
     inkscape:window-maximized="1"
     inkscape:current-layer="svg4">
    <sodipodi:guide
       id="guide830"
       orientation="0,50"
       position="0,40" />
    <sodipodi:guide
       id="guide832"
       orientation="50,0"
       position="40,40" />
    <sodipodi:guide
       id="guide834"
       orientation="0,-50"
       position="40,0" />
    <sodipodi:guide
       id="guide836"
       orientation="-50,0"
       position="0,0" />
  </sodipodi:namedview>
  <path
     fill="#2b2b2b"
     d="m 23.989781,2.7588244 c -0.728205,0.0044 -1.448392,0.1965392 -1.678212,0.5382826 -0.146975,0.2420073 -0.256542,1.7541852 -0.146975,2.5198082 0,0 0.04276,0.5060138 0.120246,0.9005597 A 19.507886,21.413965 0 0 1 22.25811,6.9844153 9.3851637,10.302172 0 0 1 22.128498,7.871775 c -0.0133,0.08213 -0.276585,0.139342 -0.567866,0.222941 a 3.3337106,3.6594418 0 0 0 -0.184386,-0.0616 C 21.063587,7.931908 20.861827,8.213521 20.550502,8.41446 20.458312,8.35579 20.054788,8.153385 19.834322,8.294186 19.613856,8.43499 19.466879,8.57726 19.246414,8.676997 19.136852,8.616867 18.842893,8.616867 18.605059,8.718077 a 1.6969189,1.8627218 0 0 0 -0.645355,0.407745 c -3.091866,0.850692 -6.430922,2.39807 -6.696817,2.553542 -1.35887,0.765624 -3.579563,2.075396 -4.5883615,2.981822 -1.7249786,1.570847 -2.752483,3.405702 -3.1573376,4.755073 C 3.0027678,21.08831 3.149744,22.09594 3.6454558,21.450588 4.0436296,20.91377 5.8260641,19.31799 6.9524431,18.518634 l -0.00268,0.01038 A 4.3010879,4.7213397 0 0 1 7.53767,18.147615 l 0.311325,-0.181873 0.674758,-0.473746 c 0.804367,0.809623 1.072935,2.101794 1.25198,3.857445 0.293954,2.700217 2.276811,3.949852 4.588361,3.989454 2.405081,0.04107 3.268239,0.585217 4.167471,1.914057 0.204433,0.294807 0.424899,0.450279 0.627994,0.539749 a 2.61085,2.8659517 0 0 0 -0.213785,0.594015 c -0.100217,0.249342 -0.16702,0.557351 -0.209776,0.891761 a 0.20977659,0.23027348 0 0 0 -0.04009,0.110017 c -0.09086,0.786155 -0.07349,2.640078 -0.09086,3.627173 -0.0187,0.987097 -0.03743,1.129366 -0.110891,1.270171 -0.07349,0.161338 -0.146975,0.261074 -0.237838,0.684954 -0.09219,0.442946 -0.257878,0.563217 -0.422226,0.925494 -0.275246,0.564684 -0.220464,1.188034 0.0548,1.471108 0.275247,0.281611 1.028842,0.70549 2.055009,0.564686 1.02884,-0.140806 1.175818,-0.221474 1.010133,-1.309772 -0.0187,-0.161338 -0.256541,-0.88736 -0.183054,-1.168969 0.109561,-0.302142 -0.128282,-0.825757 -0.07349,-0.846291 0.0548,-0.02052 0.128282,-0.422412 0.128282,-0.62482 0,-0.200938 -0.0187,-1.167501 0.183054,-1.672049 0.08286,-0.205339 0.257877,-0.674686 0.435586,-1.151367 0.590581,-1.060433 0.613297,-1.70285 0.641355,-2.068061 0.04009,-0.296276 0.06146,-0.674686 0.02406,-1.091232 0.07349,-0.12173 0.386147,-0.403347 0.422225,-0.947494 0,0 0.860483,-0.494283 1.472445,-1.683785 0.213784,0.816958 0.414207,1.334708 0.38214,1.865655 -0.666741,0.572019 -0.913931,0.99443 -1.01548,1.406576 -0.06413,-0.02933 -0.101558,-0.05426 -0.146974,-0.05867 h -0.03607 a 0.58390041,0.64095231 0 0 0 -0.141649,0.04254 c -0.256541,0.09974 -0.0548,1.933124 0.220466,2.679677 0.275251,0.745091 0.422226,1.188037 0.531792,1.994727 0.110891,0.805223 -0.256541,1.79232 -0.40352,2.235267 0,0 -0.23917,0.786157 0.311325,1.20857 0.478344,0.363743 2.27681,0.264006 3.083848,0.264006 0.808375,0 2.018935,0.32121 2.789896,0.159872 0.955351,-0.181873 1.100993,-0.80669 0.533128,-1.129368 -0.569206,-0.322674 -1.43236,-0.482545 -2.552062,-1.368439 -0.293953,-0.222939 -0.697472,-0.423879 -0.752255,-0.604284 -0.05479,-0.181874 -0.05479,-1.229105 -0.03607,-2.136998 0.01736,-0.906426 0.293952,-2.073927 0.384812,-2.698745 0.08553,-0.583752 -0.101558,-0.569084 -0.350075,-0.514816 0.04276,-0.215607 0.0882,-0.428281 0.129612,-0.654153 0.459637,-0.926959 0.257878,-1.793786 0.257878,-1.793786 1.095649,-1.531245 0.534463,-4.796142 0.293955,-5.937243 0.855139,0.444414 1.282711,0.275742 1.282711,0.275742 0.136289,-0.08066 0.25654,-0.19654 0.366104,-0.328544 0.45026,-0.530941 0.681416,-1.343499 0.681416,-1.343499 v -0.03961 c 1.044897,-1.148479 1.537939,-2.839596 0.347425,-3.948429 A 1.7784243,1.9521911 0 0 0 29.874198,13.091831 2.0844044,2.2880677 0 0 0 29.37982,10.552956 1.8171729,1.9947257 0 0 0 28.729111,10.117344 c -0.26723,-0.43268 -0.327357,-0.61162 -0.76428,-0.511883 -0.200424,-0.242007 -0.237838,-0.422412 -0.660062,-0.261074 0,0 -0.128282,-0.34321 -0.367443,-0.423879 a 0.33403913,0.36667751 0 0 0 -0.0668,-0.02199 c -0.40352,-0.30801 -0.769628,-0.315342 -1.031514,-0.234675 -0.08553,-0.07041 -0.08153,-0.181871 -0.09352,-0.569083 -0.01062,-0.293341 -0.0254,-0.7128207 -0.04142,-1.0912315 0.03607,-0.481081 0.13629,-1.4285753 0.168354,-1.911123 0.0374,-0.5426885 0.05613,-1.3904467 -0.164347,-1.7527241 -0.257882,-0.4048498 -0.991432,-0.5852551 -1.718301,-0.580855 z m -0.0068,0.4986814 c 0.935309,0 1.338831,0.3226763 1.394949,0.5030814 0.01736,0.041069 0.109561,0.7260215 0.05346,1.1689681 -0.01736,0.1613381 -0.03607,0.7465555 -0.07216,1.0076293 -0.0187,0.2625409 -0.09219,0.5646832 -0.165685,0.9870949 -0.05479,0.3432113 -0.311324,0.7260225 -0.513083,0.7861575 -0.348737,0.101208 -0.991429,0.08066 -1.358871,0 C 23.229401,7.689907 23.155908,7.629777 23.065048,7.569633 22.863383,7.2058896 22.752481,6.9242806 22.716405,6.4813333 22.679002,6.0574551 22.605513,5.877051 22.588124,5.5543741 c -0.0187,-0.484014 -0.0187,-0.8066905 -0.0187,-0.8066905 0.0187,-0.2610744 0.09219,-0.9064268 0.09219,-0.9665616 0.01736,-0.1804055 0.311325,-0.5236156 1.321461,-0.5236156 z m -1.513759,3.9630499 c 0.19508,0.2185401 0.402185,0.4488133 0.577221,0.6101513 0.165682,0.161338 0.569202,0.140804 0.935309,0.140804 0.331366,0 0.625322,0.04107 0.753593,-0.03961 0.205767,-0.112933 0.474336,-0.344677 0.69881,-0.5778829 0.01463,0.2229399 0.0294,0.4458799 0.03473,0.6380189 0.0133,0.432679 -0.05746,0.686419 0.03207,0.836024 -0.109562,0.07041 -0.232491,0.154005 -0.359425,0.228807 -0.20176,0.117334 -0.408864,0.199473 -0.538472,0.168672 h -0.0027 C 24.320958,9.17421 23.356254,8.910198 22.821791,8.62859 22.598653,8.248713 22.374179,8.044839 22.386204,7.971505 c 0.03607,-0.20094 0.05346,-0.362278 0.07216,-0.6233529 0.0051,-0.044007 0.0068,-0.085062 0.01062,-0.129066 z m -1.139742,1.0120303 0.04676,0.0015 c 0.566533,0.0528 0.868501,0.222941 1.079615,0.416547 l 0.101559,0.04401 0.01062,-0.03961 c 0.0628,0.04401 0.136291,0.088 0.216458,0.129065 0.627994,0.233206 1.475118,0.451746 1.749028,0.517748 0.330032,0.08066 0.86182,-0.281609 1.119699,-0.46348 0.458302,-0.322675 1.04621,-0.05866 1.321458,0.283075 0.183054,0.220006 0.256545,0.362278 0.256545,0.422411 0.422226,-0.161337 0.477006,0.06013 0.678767,0.302144 0.514419,-0.262541 0.550495,0.06013 0.587908,0.200939 -0.163012,0 -0.398174,0.02053 -0.718853,0.05866 l -0.01603,-0.01759 C 27.570583,9.863598 27.225854,9.664126 26.962632,9.524788 26.846385,9.479308 26.722124,9.452918 26.625919,9.382517 26.478943,9.301857 26.331966,9.181578 26.111499,9.202112 25.193561,9.322386 25.010506,9.664126 24.220839,9.463187 23.449876,9.266646 23.236093,9.090641 22.439742,9.139044 l 0.0013,0.03814 c -0.140296,0.02346 -0.267231,0.04401 -0.293956,0.04401 -0.275248,0.01759 -0.964704,0.09827 -1.540586,-0.14667 A 1.6782126,1.8421878 0 0 0 20.39139,8.963068 l -0.0068,-0.0029 h -0.0013 C 20.14282,8.857501 19.862229,8.798835 19.54155,8.795902 h -0.03473 c 0.291283,-0.161338 0.475672,-0.379878 0.748246,-0.319742 0.293955,0.06013 0.58791,0.322675 0.753592,0.523615 A 1.1464223,1.2584373 0 0 0 20.77093,8.577344 c 0.171029,-0.132006 0.327359,-0.335878 0.558514,-0.343212 z m -1.469772,0.799356 c 0.200424,0.0029 0.374125,0.03814 0.557177,0.107077 0.02406,0.01316 0.04543,0.0264 0.07883,0.04254 0.384816,0.20094 1.082288,0.240541 1.670197,0.20094 a 3.0197138,3.3147648 0 0 0 0.752255,-0.139342 c 0.430243,0.0352 0.686787,0.161338 1.305426,0.31681 0.414208,0.102678 0.670751,0.066 0.928628,-0.01027 0.25788,-0.07775 0.515759,-0.190671 0.966043,-0.249341 a 0.72419686,0.79495686 0 0 1 0.251197,0.01906 c 0.05076,0.02933 0.100216,0.05866 0.146974,0.08947 0.08283,0.07187 0.285937,0.198006 0.458301,0.277208 0.219131,0.09974 0.788333,0.523616 0.861821,0.623352 a 0.13361565,0.14667101 0 0 0 0.05076,0.04401 c 0.323349,0.460547 0.543813,1.107367 0.529116,1.774719 -0.08016,0.674687 -0.569202,0.313876 -0.836432,0.176006 -0.55049,-0.261076 -1.100985,-0.442948 -1.743678,-0.442948 -0.641354,0 -1.468435,0.06013 -2.184616,0.262543 -0.990092,0.302144 -1.284047,0.281611 -1.723642,0.03961 -0.440994,-0.261128 -1.211958,-0.906481 -1.211958,-0.906481 v 0.01465 c -0.0093,-0.01027 -0.01603,-0.01759 -0.01869,-0.01465 -0.05613,0.101209 -0.18439,0.362279 -0.257878,0.484016 -0.03607,0.765621 -0.458302,1.974191 -1.247971,2.276333 a 0.73087765,0.8022904 0 0 1 -0.623996,-0.06013 3.3443999,3.6711753 0 0 0 -0.734886,-0.403346 c 0.642691,0.563217 0.974057,0.987096 1.268013,1.732184 0.23249,0.630687 0.554503,1.491645 1.338827,2.414204 0.485026,-0.0058 0.968714,0.142285 1.285384,0.507483 0.183054,0.200939 0.477008,0.42388 0.440931,0.624818 0,0.06014 -0.110891,0.221473 -0.201758,0.343211 a 4.3171218,4.7389403 0 0 1 -0.276586,0.322674 c -0.07216,0.05867 -0.33003,0.281611 -0.384814,0.322678 -0.0548,0.03961 -0.128267,0.139342 -0.183053,0.15987 -0.184389,0.10122 -0.386149,0.02053 -0.569203,-0.08066 -0.183053,-0.101208 0.03607,-0.120259 -0.165683,-0.281608 -0.454294,-0.352002 -0.722863,-0.60281 -0.606618,-1.220295 -1.245297,-1.164578 -3.421897,-1.848064 -3.889551,-3.091835 -0.293954,-0.806689 -0.331368,-1.208569 -0.05613,-1.551779 0.808376,-1.00763 0.495716,-1.974191 1.102331,-2.396604 0.567865,-0.403346 1.046211,0.05867 1.321458,0.484015 -0.165682,-0.746556 -0.734885,-0.928428 -0.734885,-0.988562 0,-0.926962 0.808373,-1.570848 1.616749,-1.732186 0.291281,-0.06013 0.519765,-0.09093 0.721524,-0.088 z m -2.46788,0.783224 c -0.187062,0.287475 -0.308652,0.638019 -0.328695,1.057499 -0.275248,0.04106 -0.899232,0.08066 -1.211893,1.330305 a 4.5295707,4.9721472 0 0 1 -0.286008,0.90936 c -0.13762,0.066 -3.936315,1.868589 -6.986761,3.728376 l -0.0133,-0.01027 c -0.427575,0.264012 -0.837775,0.53242 -1.2279334,0.800828 l -0.1670189,0.112933 -0.00128,0.0044 c -1.5178739,1.060299 -2.7257584,2.126598 -3.5234444,3.097562 0.5504965,-3.929318 3.3778035,-5.984179 4.7166327,-6.890605 3.233499,-2.183932 6.185069,-3.26343 9.029745,-4.140523 z m 10.738692,0.473748 c 0.347399,-0.0058 0.716178,0.088 1.010133,0.403344 0.788332,0.846293 0.567866,1.773253 0.33003,2.417139 0.200424,0.262541 0.678767,1.00763 0.384812,1.893523 -0.05346,0.202405 -0.4583,0.202405 -0.752256,0.72602 0.734887,-0.463479 1.19319,-0.341742 1.358872,0.242008 0.256543,0.906427 -0.312661,1.994725 -0.808374,2.59901 0,-0.02052 -0.0187,-0.04108 -0.0187,-0.06014 -0.07349,0.302141 -0.164348,0.885891 -0.714845,1.531246 -0.275247,0.322676 -0.495713,0.281608 -0.808373,0.20094 -0.287274,-0.07919 -0.430242,-0.208274 -0.725533,-0.404814 -0.04809,-0.30361 -0.13629,-0.706953 -0.13629,-0.86536 0,-0.06454 -0.0051,-0.206806 -0.0133,-0.356409 0.04276,-0.0528 0.08819,-0.108546 0.141633,-0.167205 0,0 0.237838,-0.362277 0.587911,-0.341745 0.347399,0.02052 0.714844,-0.06014 0.807038,-0.161337 0,-0.70402 -0.734887,-0.724554 -0.477009,-1.934591 0.01736,-0.05867 0.109562,-0.161337 0.40352,-0.200939 -0.440958,-0.101196 -0.641384,-0.12173 -0.954043,-0.442939 l -0.01736,-0.01906 c 0.146974,-0.371077 0.299296,-0.670287 0.402181,-0.887359 0.257879,-0.564684 0.109562,-1.249637 0.109562,-1.249637 0.276585,-0.101208 0.51442,-0.262541 0.551833,-0.362277 0.271239,-0.987096 -0.21913,-1.938991 -0.808375,-2.552076 0.04809,-0.0043 0.09753,-0.0072 0.146976,-0.0089 z m -7.295417,1.356706 c 0.0133,0.02346 0.02673,0.04839 0.04543,0.07334 0.239174,0.322677 0.770965,0.726021 1.487142,0.987095 0.347402,0.12173 0.623989,0.04107 0.935313,-0.03961 1.500503,-0.407746 3.078503,-0.507482 4.4494,0.22734 a 2.431805,2.6694123 0 0 1 -0.209775,1.566447 c -0.309988,0.682019 -0.712173,1.566445 -0.641356,3.248763 -0.328696,0.06454 -1.896006,0.211205 -2.661624,0.05426 -0.696138,-0.142284 -1.891999,-0.770021 -2.164574,-1.01203 a 8.9562573,9.8313577 0 0 1 -0.16709,-1.243767 1.8305345,2.0093928 0 0 0 0.606614,-0.503082 c -0.550496,0.09974 -0.770962,0.05867 -1.102328,-0.142269 -0.313998,-0.190675 -0.857813,-0.781758 -1.162456,-1.202704 0.305979,-0.425345 0.525108,-1.01203 0.447611,-1.798186 0.04943,-0.07334 0.09352,-0.145205 0.13629,-0.215606 z m -5.852364,2.343803 c -0.120246,0.371078 0.12425,0.959228 0.299298,1.397775 0.678767,1.729251 2.765842,1.892055 4.17816,3.197426 a 0.9660412,1.0604314 0 0 0 0.08016,0.569083 c 0.110892,0.242009 0.495713,0.605754 0.495713,0.605754 C 19.96258,19.838651 20,20 20,20 c 0.272577,0.318275 0.673424,0.35641 0.730876,0.360812 -0.581229,1.830454 -1.090304,3.851579 -0.602606,6.006176 -0.239171,0.35788 -0.491704,0.652687 -0.709498,0.979762 A 1.1370692,1.2481703 0 0 1 18.825459,26.892071 C 18.03579,25.642435 16.87868,24.81521 14.786258,24.876812 11.647626,24.957472 10.399657,23.546506 10.16182,20.846293 10.036226,19.417717 9.684812,18.027276 8.975313,17.210317 c 2.025614,-1.230568 4.846239,-2.810215 5.738793,-3.113824 a 3.7412383,4.1067883 0 0 0 0.26723,-0.107065 z m 4.671133,0.264008 c 0.509074,0.648286 1.062244,1.066298 1.594035,1.435909 0.109562,0.503081 0.146974,0.846291 0.256543,1.510711 h -0.0548 l -0.03607,0.451747 A 3.7893399,4.1595899 0 0 0 20.585163,17.48606 l 0.0013,-0.0044 c -1.193183,-1.550262 -0.935304,-2.156012 -1.413646,-2.961237 0.129611,-0.04986 0.300633,-0.137872 0.481015,-0.266941 z m 7.89802,1.592846 c 0.101559,0.09827 0.237837,0.176005 0.43158,0.225875 -0.436923,0.997362 0.440931,1.337638 0.49438,1.716049 -0.191071,0.12173 -0.490372,0.05426 -0.805705,0.03668 -0.153653,-0.0086 -0.30598,0.09534 -0.428907,0.215607 L 27.286,17.502203 c 0.0082,-0.630684 0.120246,-1.186568 0.26723,-1.65738 z m -5.459535,1.501912 c 0.03207,0.05133 0.237837,0.19214 1.33883,0.516281 1.370896,0.403346 3.103892,0.176006 3.4072,0.13202 a 0.50506717,0.55441641 0 0 1 -0.0294,0.130536 c 0,0.503083 0.07349,0.865359 0.128281,1.188037 0.07082,0.451746 0.173699,0.781754 0.217792,1.085364 l 0.01062,-0.01038 c 0.312661,2.004994 0.749583,4.595203 -0.356753,5.937242 0.05479,0.281609 0.0922,0.684954 0.0187,1.148437 a 4.2810454,4.6993391 0 0 1 -0.201759,0.784686 3.0597985,3.3587661 0 0 0 -0.144303,0.516282 c -1.469773,0.208272 -2.344955,0.08069 -2.752482,-0.02199 0.164347,-0.54855 0.543814,-1.105901 1.170472,-1.078034 -0.0294,-1.33617 -0.352744,-1.793784 -0.682777,-2.773548 0.527784,-1.295104 0.399513,-2.442071 0.829755,-4.177189 -0.330031,0.382812 -0.58791,1.773252 -0.80704,2.619545 -0.275248,1.229104 -0.752254,2.417138 -2.037639,3.364633 0,0.322676 -0.09219,0.563216 -0.201757,0.724555 -0.239174,0.38281 -0.550498,0.504547 -0.660062,1.129367 0.146974,-0.202408 0.3474,-0.382813 0.3474,-0.322677 a 11.370692,12.481703 0 0 1 -0.0334,0.723087 l 0.01603,0.0014 c -0.220467,1.531246 -0.697476,2.236734 -0.991429,3.102093 -0.201761,0.624818 -0.128282,1.994725 -0.201761,2.01526 -0.51442,0.121745 -1.302751,-0.09974 -1.523217,-0.220006 0.216456,-1.672049 0.0254,-3.341164 0.582563,-5.280157 l -0.02003,-0.0086 c 0.213782,-0.812558 0.63868,-1.287773 1.25465,-2.147265 -0.215123,-0.76269 -0.710838,-2.405404 0.355416,-6.133782 0.04409,-0.02052 0.08953,-0.04402 0.140298,-0.07187 l 0.275249,-0.200939 c 0.05346,-0.04107 0.128282,-0.101209 0.183052,-0.140807 0.0922,-0.06161 0.495715,-0.544148 0.550498,-0.604284 0.128282,-0.142268 0.220465,-0.181873 0.256542,-0.34321 0.07349,-0.302143 -0.330032,-0.604285 -0.494379,-0.806689 -0.02406,-0.02787 -0.04009,-0.04989 -0.05746,-0.07334 0.01736,-0.0572 0.03607,-0.112933 0.05613,-0.167206 0.0133,-0.183339 0.0374,-0.381344 0.05613,-0.538283 z m 1.179828,11.64861 c 0.0668,0.0028 0.23249,0.178939 1.003454,0.231742 0.881863,0.05867 2.056344,-0.12173 2.367669,-0.202406 0.31266,-0.08066 0.129613,0.161337 0.09219,0.403345 l -0.03474,0.247875 c -0.533126,0.196538 -1.346845,0.27574 -1.891997,0.296272 -0.52511,0.01909 -1.130388,-0.01759 -1.551277,-0.161337 -0.06412,-0.381344 -0.0842,-0.689352 -0.0093,-0.806689 a 0.03206777,0.03520105 0 0 1 0.02406,-0.0086 z m 3.348407,1.240838 c -0.02673,0.198006 -0.04676,0.327078 -0.07749,0.545615 -0.518428,0.176006 -1.186507,0.17894 -1.696918,0.198007 a 5.8964589,6.4725916 0 0 1 -1.352191,-0.102666 2.7591632,3.0287563 0 0 1 -0.04409,-0.159872 15.156023,16.636893 0 0 1 -0.08686,-0.369611 c 0.239172,0.04989 0.708163,0.115873 1.536582,0.127596 a 5.5343603,6.0751132 0 0 0 1.720968,-0.239072 z m -0.141632,1.004697 c -0.09219,0.645352 -0.07349,2.619544 -0.0187,3.163693 0.0187,0.161338 1.266677,0.765623 1.706272,1.129368 0.142968,0.124668 0.346064,0.230273 0.563858,0.325608 0.05613,0.06161 0.154989,0.154003 0.263222,0.297744 0.216457,0.312408 0.06949,0.639484 -0.180382,0.771488 -0.352744,-0.01038 -0.758936,-0.07628 -1.435032,-0.187739 -0.928628,-0.152523 -1.508521,-0.148135 -2.311548,-0.155464 v -0.0044 C 24.863553,36.179285 24.99183,35.514867 24.99183,35.514867 A 2.9395443,3.2267621 0 0 1 23.9109,35.250811 l 0.01603,-0.03813 c 0.312658,-0.704018 0.293953,-0.866824 0.201757,-2.075394 -0.0628,-0.847758 -0.261886,-1.295104 -0.447612,-1.752717 0.225811,0.02346 0.546489,0.05133 1.145088,0.06014 a 6.1022269,6.6984649 0 0 0 1.652825,-0.202408 z m -7.089647,3.056622 c 0.324684,0 0.801694,0.04695 0.903241,0.146673 v 0.02052 c 0.0187,0.242007 0.220467,0.585218 0.146975,0.765623 -0.03607,0.101208 -0.128282,-0.06013 -0.256543,-0.09974 0.0548,0.381346 0.20176,1.086832 0.422226,1.630982 0.146975,0.363742 0.0548,0.624816 -0.440932,0.72602 -0.440931,0.02052 -1.008798,0 -1.485806,-0.12173 -0.550496,-0.302142 -0.734886,-0.463481 -0.623985,-1.026696 0.09085,-0.403345 0.660062,-0.865359 1.155777,-1.229105 -0.27525,0.02053 -0.569204,0.242009 -0.531792,-0.02052 0.07349,-0.523612 0.27525,-0.484011 0.40352,-0.745086 -0.02673,-0.02933 0.112257,-0.04695 0.307315,-0.04695 z"
     id="path2"
     style="fill:#2b2b2b;fill-opacity:1;stroke:#000000;stroke-width:0.335797;stroke-miterlimit:4;stroke-dasharray:none;stroke-opacity:1" />
</svg>
