<?xml version="1.0" encoding="UTF-8" standalone="no"?>
<svg
   xmlns:dc="http://purl.org/dc/elements/1.1/"
   xmlns:cc="http://creativecommons.org/ns#"
   xmlns:rdf="http://www.w3.org/1999/02/22-rdf-syntax-ns#"
   xmlns:svg="http://www.w3.org/2000/svg"
   xmlns="http://www.w3.org/2000/svg"
   xmlns:sodipodi="http://sodipodi.sourceforge.net/DTD/sodipodi-0.dtd"
   xmlns:inkscape="http://www.inkscape.org/namespaces/inkscape"
   height="200"
   width="200"
   version="1.1"
   id="Layer_1"
   x="0px"
   y="0px"
   viewBox="0 0 200 200"
   xml:space="preserve"
   sodipodi:docname="icon-python.svg"
   inkscape:version="1.0 (4035a4fb49, 2020-05-01)"><metadata
   id="metadata11"><rdf:RDF><cc:Work
       rdf:about=""><dc:format>image/svg+xml</dc:format><dc:type
         rdf:resource="http://purl.org/dc/dcmitype/StillImage" /></cc:Work></rdf:RDF></metadata><defs
   id="defs9" /><sodipodi:namedview
   inkscape:snap-object-midpoints="true"
   inkscape:snap-center="true"
   inkscape:document-rotation="0"
   pagecolor="#ffffff"
   bordercolor="#666666"
   borderopacity="1"
   objecttolerance="10"
   gridtolerance="10"
   guidetolerance="10"
   inkscape:pageopacity="0"
   inkscape:pageshadow="2"
   inkscape:window-width="1366"
   inkscape:window-height="705"
   id="namedview7"
   showgrid="false"
   inkscape:zoom="1.6055073"
   inkscape:cx="65.215278"
   inkscape:cy="95.396801"
   inkscape:window-x="-8"
   inkscape:window-y="-8"
   inkscape:window-maximized="1"
   inkscape:current-layer="Layer_1" />
<title
   id="title2">python</title>
<path
   d="m 113.49046,27.517402 5.48764,1.37191 4.57303,1.371911 3.20113,2.286517 2.74382,1.829214 2.28651,2.286517 1.37191,2.286517 0.91461,1.371911 0.4573,1.829214 0.45731,1.37191 v 1.371911 0.914606 32.468547 l -0.45731,3.658428 -0.9146,3.201124 -1.37191,2.743821 -0.91461,2.743821 -1.82921,1.829214 -1.82922,1.37191 -2.28652,1.37191 -2.28651,0.914607 -1.82921,0.457304 -1.82922,0.457303 -1.82921,0.457304 h -1.37191 -36.584283 l -4.115731,0.457303 -3.658428,0.914607 -3.201125,1.371907 -2.286517,1.82921 -1.829214,1.82922 -1.829214,2.28652 -1.37191,2.28651 -0.914606,2.28652 -0.457304,2.28652 -0.457304,1.82921 -0.457303,1.82921 v 1.37192 18.74944 h -13.719105 -1.37191 l -1.829214,-0.45731 -1.829214,-0.91461 -2.286517,-0.9146 -1.37191,-2.74382 -2.286518,-2.28652 -2.286518,-2.74382 -1.829214,-3.65843 -1.829213,-4.57303 -0.914607,-5.03034 -0.914607,-6.40225 -0.457304,-7.31685 0.457304,-7.316855 0.914607,-6.402249 1.37191,-5.487642 1.829214,-4.573034 2.286518,-3.658428 2.286518,-2.743821 2.74382,-1.829214 2.743821,-1.37191 2.286517,-0.914607 2.286518,-0.457304 1.829214,-0.457303 h 1.37191 0.914607 0.457303 49.846078 V 59.528645 H 64.10168 V 42.608416 40.321899 l 0.457303,-2.286518 0.457304,-1.829213 0.914607,-1.829214 1.37191,-1.37191 1.829214,-1.371911 2.74382,-0.914607 2.743821,-0.914607 3.201124,-0.914607 3.201124,-0.914607 3.658428,-0.457303 4.115731,-0.457304 4.573035,-0.457303 h 5.944945 l 7.774164,0.457303 z m -38.413497,12.347193 -1.37191,1.829214 -0.457304,2.286518 0.457304,2.286517 1.37191,2.286517 1.829214,1.371911 2.286517,0.457303 2.286518,-0.457303 1.829214,-1.371911 2.286517,-1.829214 0.457303,-2.286517 -0.457303,-2.743821 -1.371911,-1.829214 -1.829213,-1.37191 -2.286518,-0.457304 -2.286517,0.457304 z m 79.570807,23.779781 1.82921,0.457303 1.82921,0.914607 2.28652,0.914607 2.28652,1.829214 2.28652,2.286517 2.28651,2.743821 1.82922,3.658428 1.82921,4.573035 1.37191,5.487641 0.91461,6.402249 0.4573,7.316852 -0.4573,7.31686 -0.91461,6.40224 -1.37191,5.03034 -1.82921,4.11573 -2.28652,3.65843 -2.28652,2.74382 -3.65842,2.28652 -2.28652,1.37191 -2.28652,0.9146 -2.28652,0.45731 -1.82921,0.4573 h -1.37191 -0.91461 -50.303381 v 5.03034 h 35.669671 v 16.92023 2.28652 l -0.4573,2.28651 -0.45731,1.82922 -0.9146,1.82921 -1.37191,1.37191 -1.82922,1.37191 -2.28651,1.37191 -2.74383,0.91461 -3.20112,0.91461 -3.65842,0.9146 -4.11574,0.45731 -4.11573,0.4573 -4.57303,0.4573 h -5.03034 l -7.774163,-0.4573 -6.402248,-0.91461 -5.487642,-1.37191 -4.573035,-1.37191 -3.658427,-1.82921 -2.743821,-1.82922 -2.286518,-2.28651 -1.37191,-2.28652 -1.37191,-1.82921 -0.457304,-1.82922 -0.457303,-1.37191 v -1.37191 -0.91461 -32.46854 l 0.457303,-4.11573 0.914607,-3.20113 1.371911,-2.74382 1.37191,-2.28651 1.829214,-1.82922 1.829214,-1.37191 2.286517,-1.37191 2.286517,-0.91461 1.829214,-0.4573 1.829214,-0.4573 1.371911,-0.45731 h 2.286517 35.669672 l 4.11573,-0.4573 3.65843,-0.91461 3.20112,-1.371903 2.28652,-1.829213 1.82921,-1.829214 1.82922,-2.286518 1.37191,-2.286517 0.91461,-2.286517 0.4573,-2.286518 0.4573,-1.829214 0.45731,-1.829213 V 81.479211 63.644376 h 12.80449 0.91461 z m -39.3281,86.887654 -1.37191,1.82921 -0.4573,2.28652 0.4573,2.28652 1.37191,1.82921 1.82921,1.37191 2.28652,0.45731 2.28652,-0.45731 1.82921,-1.37191 1.37191,-1.82921 0.4573,-2.28652 -0.4573,-2.28652 -1.37191,-1.82921 -1.37191,-1.37191 -2.28651,-0.4573 -2.28652,0.4573 z"
   id="path4"
   style="fill:none;stroke:#0a010e;stroke-width:2.28652;stroke-miterlimit:4;stroke-dasharray:none;stroke-opacity:1" />
<rect
   y="0"
   x="0"
   height="200"
   width="200"
   id="rect831"
   style="opacity:0.997;fill:none;fill-rule:evenodd;stroke:none;stroke-width:1.65266;stroke-linecap:round;paint-order:stroke markers fill" /></svg>
